<svg width="456" height="88" viewBox="0 0 456 88" fill="none" xmlns="http://www.w3.org/2000/svg">
<g filter="url(#filter0_dg_309_57)">
<path d="M59.6068 42.0118H72.5879C71.7902 52.9865 62.1692 56.274 50.4692 56.274C38.2859 56.2499 28.2298 52.7206 28.2781 40.4163V38.0473C28.2298 25.7673 38.2859 22.2379 50.4692 22.1896C62.1692 22.2138 71.7902 25.5013 72.5879 36.4519H59.6068C58.4223 33.261 54.8205 32.5116 50.4692 32.5116C45.2961 32.5841 40.8966 33.5027 40.9691 38.845V39.6428C40.8966 44.9367 45.2961 45.9037 50.4692 45.9762C54.8205 45.9762 58.4465 45.2026 59.6068 42.0118ZM94.4802 22.1896C106.712 22.1896 116.647 25.7673 116.647 38.0473V40.4163C116.696 52.6964 106.688 56.2499 94.4802 56.274C82.2485 56.2499 72.2407 52.6964 72.2891 40.4163V38.0473C72.2407 25.7431 82.2485 22.2138 94.4802 22.1896ZM103.98 39.6186V38.8209C104.053 33.5269 99.6533 32.56 94.4802 32.4874C89.283 32.56 84.8834 33.5269 84.9559 38.8209V39.6186C84.8834 44.9367 89.283 45.9037 94.4802 45.9762C99.6533 45.9037 104.053 44.9367 103.98 39.6186ZM148.668 40.1987V22.9873H161.359V55.4763H147.097L129.644 35.63V55.4763H116.977V22.9873H134.406L148.668 40.1987ZM190.02 55.5247H177.353V33.3335H162.293V23.0357H205.08V33.3335H190.02V55.5247ZM218.173 32.4391L213.701 42.0359H222.621L218.173 32.4391ZM193.202 55.5247L210.631 23.0357H225.691L243.12 55.5247H228.858L226.296 49.9648H210.027L207.465 55.5247H193.202ZM268.929 42.0118H281.91C281.112 52.9865 271.491 56.274 259.791 56.274C247.608 56.2499 237.552 52.7206 237.6 40.4163V38.0473C237.552 25.7673 247.608 22.2379 259.791 22.1896C271.491 22.2138 281.112 25.5013 281.91 36.4519H268.929C267.744 33.261 264.142 32.5116 259.791 32.5116C254.618 32.5841 250.219 33.5027 250.291 38.845V39.6428C250.219 44.9367 254.618 45.9037 259.791 45.9762C264.142 45.9762 267.768 45.2026 268.929 42.0118ZM307.162 55.5247H294.495V33.3335H279.435V23.0357H322.222V33.3335H307.162V55.5247ZM372.123 39.6428V22.9873H384.814V40.4405C384.862 52.7206 374.806 56.2499 362.623 56.274C350.439 56.2499 340.383 52.7206 340.432 40.4405V22.9873H353.098V39.6428C353.05 44.9851 357.426 45.9037 362.623 45.9762C367.796 45.9037 372.195 44.9851 372.123 39.6428ZM398.246 33.6961C398.246 35.1223 402.186 35.3157 407.286 35.5575C416.351 36.0168 429.091 36.6453 429.067 44.7917C429.067 54.0743 418.43 56.274 407.021 56.274C395.635 56.2499 386.183 54.872 384.974 44.7917H398.246C399.696 47.3057 403.056 47.9584 407.021 47.9584C410.961 47.9584 415.795 47.3057 415.795 44.7917C415.795 43.3655 411.855 43.1479 406.755 42.9062C397.69 42.4469 384.95 41.8184 384.974 33.6961C384.974 24.4135 395.611 22.1896 407.021 22.1896C418.406 22.2621 427.858 23.5433 429.067 33.6961H415.795C414.345 31.1337 410.985 30.5294 407.021 30.5294C403.08 30.5294 398.246 31.1096 398.246 33.6961Z" fill="#FFD120"/>
</g>
<defs>
<filter id="filter0_dg_309_57" x="1.33343" y="-0.000201702" width="454.654" height="87.8776" filterUnits="userSpaceOnUse" color-interpolation-filters="sRGB">
<feFlood flood-opacity="0" result="BackgroundImageFix"/>
<feColorMatrix in="SourceAlpha" type="matrix" values="0 0 0 0 0 0 0 0 0 0 0 0 0 0 0 0 0 0 127 0" result="hardAlpha"/>
<feOffset dy="4.7069"/>
<feGaussianBlur stdDeviation="13.4483"/>
<feComposite in2="hardAlpha" operator="out"/>
<feColorMatrix type="matrix" values="0 0 0 0 1 0 0 0 0 0.541176 0 0 0 0 0.0705882 0 0 0 0.35 0"/>
<feBlend mode="normal" in2="BackgroundImageFix" result="effect1_dropShadow_309_57"/>
<feBlend mode="normal" in="SourceGraphic" in2="effect1_dropShadow_309_57" result="shape"/>
<feTurbulence type="fractalNoise" baseFrequency="1.4871795177459717 1.4871795177459717" numOctaves="3" seed="1318" />
<feDisplacementMap in="shape" scale="2.689655065536499" xChannelSelector="R" yChannelSelector="G" result="displacedImage" width="100%" height="100%" />
<feMerge result="effect2_texture_309_57">
<feMergeNode in="displacedImage"/>
</feMerge>
</filter>
</defs>
</svg>
