<svg width="615" height="263" viewBox="0 0 615 263" fill="none" xmlns="http://www.w3.org/2000/svg">
<path d="M0.383773 1.66396H19.0078V4.12796H11.1038V24.064H8.28777V4.12796H0.383773V1.66396ZM20.7165 0.351963H23.3405V12.864C23.3725 10.592 25.9965 7.87196 29.0045 7.87196C32.8125 7.87196 34.6685 10.368 34.6685 13.44V24.064H32.1085V13.152C32.1085 11.296 30.9885 9.40796 28.5565 9.40796C25.4205 9.40796 23.3085 12.672 23.3085 15.552V24.064H20.7165V0.351963ZM36.1115 8.35196H40.3995V24.064H37.8395V10.88H36.1115V8.35196ZM36.5275 4.28796C36.5275 3.29596 37.3275 2.49596 38.2875 2.49596C39.2795 2.49596 40.0795 3.29596 40.0795 4.28796C40.0795 5.24796 39.2795 6.04796 38.2875 6.04796C37.3275 6.04796 36.5275 5.24796 36.5275 4.28796ZM49.5818 24.544C44.7178 24.544 42.3178 22.304 42.3178 19.552H44.4298C44.4298 21.44 46.1578 22.752 49.5818 22.752C52.4938 22.752 54.4458 21.952 54.4458 19.584C54.4458 15.232 42.3178 19.392 42.3178 12.64C42.3178 9.34396 45.3898 7.74396 49.8378 7.74396C54.9578 7.74396 56.6858 9.98396 56.6858 12.64H54.7658C54.7658 10.368 52.6858 9.53596 49.8378 9.53596C46.8938 9.53596 44.5578 10.24 44.5578 12.64C44.5578 16.992 56.6858 12.8 56.6858 19.552C56.6858 22.56 54.5418 24.576 49.5818 24.544ZM73.4683 24.544C67.9003 24.544 64.8603 20.992 64.8603 16.192C64.8603 11.424 67.9003 7.87196 73.4683 7.87196C77.9483 7.87196 80.2523 11.008 80.7323 12.768H78.1403C77.6603 11.2 76.0923 9.69596 73.4683 9.69596C70.5883 9.69596 67.4523 11.584 67.4523 16.192C67.4523 20.832 70.6843 22.72 73.4683 22.72C76.0923 22.72 77.6603 21.504 78.1403 19.648H80.7323C80.2203 21.664 77.9483 24.544 73.4683 24.544ZM81.774 16.192C81.774 10.816 85.742 7.87196 90.606 7.87196C95.502 7.87196 99.47 10.72 99.47 16.192C99.47 21.696 95.374 24.544 90.606 24.544C85.838 24.544 81.774 21.568 81.774 16.192ZM90.606 9.85596C87.406 9.85596 84.142 11.392 84.142 16.192C84.142 20.992 87.566 22.56 90.606 22.56C93.646 22.56 97.07 21.088 97.07 16.192C97.07 11.328 93.838 9.85596 90.606 9.85596ZM101.23 24.064V8.35196H102.606L103.47 13.856C103.534 10.336 106.158 7.87196 109.358 7.87196C112.238 7.87196 113.422 9.91996 114.03 12.32H114.35C115.022 9.63196 117.486 7.87196 120.366 7.87196C123.438 7.87196 125.934 10.112 125.934 13.44V24.064H123.374V13.152C123.374 11.2 122.062 9.34396 119.502 9.34396C116.814 9.34396 114.862 11.04 114.862 13.344V24.064H112.302V13.344C112.302 11.424 110.99 9.34396 108.494 9.34396C106.382 9.34396 103.822 11.296 103.822 15.584V24.064H101.23ZM130.767 32.064H128.175V8.35196H129.807L130.607 14.272H130.895C131.439 10.592 133.839 7.87196 137.167 7.87196C140.911 7.87196 144.943 9.91996 144.943 16.224C144.943 22.496 140.911 24.544 137.167 24.544C134.031 24.544 131.855 22.592 131.055 19.488H130.767V32.064ZM136.943 9.37596C132.783 9.37596 131.119 12.96 131.151 16.736C131.151 20 132.975 23.04 136.943 23.04C140.559 23.04 142.383 20.064 142.383 16.224C142.383 12.352 140.559 9.37596 136.943 9.37596ZM155.008 24.544C150.048 24.544 145.984 21.6 145.984 16.192C145.984 10.976 149.664 7.87196 154.912 7.87196C160.704 7.87196 163.68 11.584 163.52 17.088H148.64C148.736 21.024 152 22.688 155.008 22.688C158.464 22.688 159.968 21.184 160.736 19.296H163.328C162.112 22.144 159.744 24.544 155.008 24.544ZM154.912 9.66396C150.656 9.69596 148.672 12.704 148.608 15.552H160.832C160.768 13.056 159.136 9.63196 154.912 9.66396ZM162.958 8.35196H167.374L164.91 3.77596H168.654L168.334 8.35196H175.438V10.432H168.366V18.912C168.366 21.696 169.806 22.624 171.726 22.624C172.878 22.624 174.158 22.272 175.438 21.824V24.064C174.062 24.32 172.686 24.512 171.47 24.512C168.206 24.512 165.806 23.232 165.806 18.72V10.432H162.958V8.35196ZM176.617 8.35196H180.905V24.064H178.345V10.88H176.617V8.35196ZM177.033 4.28796C177.033 3.29596 177.833 2.49596 178.793 2.49596C179.785 2.49596 180.585 3.29596 180.585 4.28796C180.585 5.24796 179.785 6.04796 178.793 6.04796C177.833 6.04796 177.033 5.24796 177.033 4.28796ZM182.567 8.35196H186.983L184.519 3.77596H188.263L187.943 8.35196H195.047V10.432H187.975V18.912C187.975 21.696 189.415 22.624 191.335 22.624C192.487 22.624 193.767 22.272 195.047 21.824V24.064C193.671 24.32 192.295 24.512 191.079 24.512C187.815 24.512 185.415 23.232 185.415 18.72V10.432H182.567V8.35196ZM196.225 8.35196H200.513V24.064H197.953V10.88H196.225V8.35196ZM196.641 4.28796C196.641 3.29596 197.441 2.49596 198.401 2.49596C199.393 2.49596 200.193 3.29596 200.193 4.28796C200.193 5.24796 199.393 6.04796 198.401 6.04796C197.441 6.04796 196.641 5.24796 196.641 4.28796ZM202.272 16.192C202.272 10.816 206.24 7.87196 211.104 7.87196C216 7.87196 219.968 10.72 219.968 16.192C219.968 21.696 215.872 24.544 211.104 24.544C206.336 24.544 202.272 21.568 202.272 16.192ZM211.104 9.85596C207.904 9.85596 204.64 11.392 204.64 16.192C204.64 20.992 208.064 22.56 211.104 22.56C214.144 22.56 217.568 21.088 217.568 16.192C217.568 11.328 214.336 9.85596 211.104 9.85596ZM221.728 8.35196H223.104L223.776 13.888C224.096 10.304 226.688 7.87196 230.016 7.87196C233.376 7.87196 235.68 10.368 235.68 13.44V24.064H233.12V13.152C233.12 11.2 231.648 9.34396 229.088 9.34396C226.432 9.34396 224.32 11.968 224.32 15.36V24.064H221.728V8.35196ZM247.241 32.064H244.649V8.35196H246.281L247.081 14.272H247.369C247.913 10.592 250.313 7.87196 253.641 7.87196C257.385 7.87196 261.417 9.91996 261.417 16.224C261.417 22.496 257.385 24.544 253.641 24.544C250.505 24.544 248.329 22.592 247.529 19.488H247.241V32.064ZM253.417 9.37596C249.257 9.37596 247.593 12.96 247.625 16.736C247.625 20 249.449 23.04 253.417 23.04C257.033 23.04 258.857 20.064 258.857 16.224C258.857 12.352 257.033 9.37596 253.417 9.37596ZM263.188 24.064V8.35196H264.5L265.204 14.272H265.492C266.1 8.89596 269.204 7.83996 271.604 7.83996C271.956 7.83996 272.308 7.83996 272.596 7.87196V10.368C272.372 10.336 271.988 10.304 271.572 10.304C269.46 10.304 265.78 11.104 265.78 15.648V24.064H263.188ZM272.34 16.192C272.34 10.816 276.308 7.87196 281.172 7.87196C286.068 7.87196 290.036 10.72 290.036 16.192C290.036 21.696 285.94 24.544 281.172 24.544C276.404 24.544 272.34 21.568 272.34 16.192ZM281.172 9.85596C277.972 9.85596 274.708 11.392 274.708 16.192C274.708 20.992 278.132 22.56 281.172 22.56C284.212 22.56 287.636 21.088 287.636 16.192C287.636 11.328 284.404 9.85596 281.172 9.85596ZM289.96 8.35196H292.616L298.024 23.584H299.496L304.904 8.35196H307.528L301.8 24.064H295.72L289.96 8.35196ZM307.973 8.35196H312.261V24.064H309.701V10.88H307.973V8.35196ZM308.389 4.28796C308.389 3.29596 309.189 2.49596 310.149 2.49596C311.141 2.49596 311.941 3.29596 311.941 4.28796C311.941 5.24796 311.141 6.04796 310.149 6.04796C309.189 6.04796 308.389 5.24796 308.389 4.28796ZM321.795 24.544C318.051 24.544 314.019 22.496 314.019 16.192C314.019 9.91996 318.051 7.87196 321.795 7.87196C324.931 7.87196 327.107 9.82396 327.907 12.928H328.227V0.351963H330.787V24.064H329.187L328.387 18.144H328.067C327.523 21.824 325.123 24.544 321.795 24.544ZM322.019 9.37596C318.403 9.37596 316.611 12.352 316.611 16.192C316.611 20.064 318.403 23.04 322.019 23.04C326.211 23.04 327.843 19.456 327.843 15.68C327.843 12.416 325.987 9.37596 322.019 9.37596ZM341.582 24.544C336.622 24.544 332.558 21.6 332.558 16.192C332.558 10.976 336.238 7.87196 341.486 7.87196C347.278 7.87196 350.254 11.584 350.094 17.088H335.214C335.31 21.024 338.574 22.688 341.582 22.688C345.038 22.688 346.542 21.184 347.31 19.296H349.902C348.686 22.144 346.318 24.544 341.582 24.544ZM341.486 9.66396C337.23 9.69596 335.246 12.704 335.182 15.552H347.406C347.342 13.056 345.71 9.63196 341.486 9.66396ZM358.802 24.544C353.938 24.544 351.538 22.304 351.538 19.552H353.65C353.65 21.44 355.378 22.752 358.802 22.752C361.714 22.752 363.666 21.952 363.666 19.584C363.666 15.232 351.538 19.392 351.538 12.64C351.538 9.34396 354.61 7.74396 359.058 7.74396C364.178 7.74396 365.906 9.98396 365.906 12.64H363.986C363.986 10.368 361.906 9.53596 359.058 9.53596C356.114 9.53596 353.778 10.24 353.778 12.64C353.778 16.992 365.906 12.8 365.906 19.552C365.906 22.56 363.762 24.576 358.802 24.544ZM373.92 19.968C373.888 16.896 376.736 14.976 380.352 14.752C380.896 14.72 381.472 14.688 382.048 14.688C383.616 14.688 385.152 14.848 386.016 15.232V14.08C386.016 10.88 384.448 9.82396 381.664 9.82396C379.296 9.82396 376.992 11.008 375.552 12.672L375.2 10.56C376.8 9.08796 379.008 7.87196 381.664 7.87196C385.856 7.87196 388.576 9.72796 388.576 13.856V24.064H387.2L386.176 19.136C384.896 22.752 382.112 24.352 379.04 24.352C376.16 24.352 374.016 22.912 373.92 19.968ZM380.256 15.872C377.248 16.416 376.256 18.336 376.576 20.096C376.832 21.504 378.112 22.528 380.064 22.528C383.072 22.528 385.056 20.288 385.952 18.496L385.984 16.16C385.216 15.872 383.776 15.68 382.4 15.68C381.632 15.68 380.864 15.744 380.256 15.872ZM404.488 24.544C399.624 24.544 397.224 22.304 397.224 19.552H399.336C399.336 21.44 401.064 22.752 404.488 22.752C407.4 22.752 409.352 21.952 409.352 19.584C409.352 15.232 397.224 19.392 397.224 12.64C397.224 9.34396 400.296 7.74396 404.744 7.74396C409.864 7.74396 411.592 9.98396 411.592 12.64H409.672C409.672 10.368 407.592 9.53596 404.744 9.53596C401.8 9.53596 399.464 10.24 399.464 12.64C399.464 16.992 411.592 12.8 411.592 19.552C411.592 22.56 409.448 24.576 404.488 24.544ZM412.944 8.35196H417.36L414.896 3.77596H418.64L418.32 8.35196H425.424V10.432H418.352V18.912C418.352 21.696 419.792 22.624 421.712 22.624C422.864 22.624 424.144 22.272 425.424 21.824V24.064C424.048 24.32 422.672 24.512 421.456 24.512C418.192 24.512 415.792 23.232 415.792 18.72V10.432H412.944V8.35196ZM426.763 19.968C426.731 16.896 429.579 14.976 433.195 14.752C433.739 14.72 434.315 14.688 434.891 14.688C436.459 14.688 437.995 14.848 438.859 15.232V14.08C438.859 10.88 437.291 9.82396 434.507 9.82396C432.139 9.82396 429.835 11.008 428.395 12.672L428.043 10.56C429.643 9.08796 431.851 7.87196 434.507 7.87196C438.699 7.87196 441.419 9.72796 441.419 13.856V24.064H440.043L439.019 19.136C437.739 22.752 434.955 24.352 431.883 24.352C429.003 24.352 426.859 22.912 426.763 19.968ZM433.099 15.872C430.091 16.416 429.099 18.336 429.419 20.096C429.675 21.504 430.955 22.528 432.907 22.528C435.915 22.528 437.899 20.288 438.795 18.496L438.827 16.16C438.059 15.872 436.619 15.68 435.243 15.68C434.475 15.68 433.707 15.744 433.099 15.872ZM450.7 24.544C446.764 24.544 443.18 22.592 443.18 16.224C443.18 9.82396 446.764 7.87196 450.7 7.87196C454.028 7.87196 456.428 10.592 456.972 14.272H457.292L458.028 8.31996H459.628V22.048C459.628 26.688 457.1 30.624 451.948 30.624C449.324 30.624 446.124 29.376 446.124 26.272H446.604C446.604 27.552 447.788 29.408 451.34 29.408C454.572 29.408 456.94 27.168 457.036 22.016V19.488H456.716C455.916 22.592 453.772 24.544 450.7 24.544ZM445.772 16.224C445.772 20.544 447.82 23.104 450.956 23.104C454.764 23.104 456.684 19.968 456.684 16.736C456.684 13.28 455.34 9.31196 450.956 9.31196C447.82 9.31196 445.772 11.872 445.772 16.224ZM470.399 24.544C465.439 24.544 461.375 21.6 461.375 16.192C461.375 10.976 465.055 7.87196 470.303 7.87196C476.095 7.87196 479.071 11.584 478.911 17.088H464.031C464.127 21.024 467.391 22.688 470.399 22.688C473.855 22.688 475.359 21.184 476.127 19.296H478.719C477.503 22.144 475.135 24.544 470.399 24.544ZM470.303 9.66396C466.047 9.69596 464.063 12.704 463.999 15.552H476.223C476.159 13.056 474.527 9.63196 470.303 9.66396ZM486.986 8.35196H490.698C490.698 8.35196 489.898 7.10396 489.706 5.37596C489.258 1.56796 491.722 -3.62396e-05 495.082 -3.62396e-05C496.362 -3.62396e-05 498.346 0.319963 499.242 1.37596V3.35996C498.25 2.52796 497.226 2.11196 495.786 2.11196C495.722 2.11196 495.658 2.11196 495.626 2.11196C490.954 2.20796 492.522 8.35196 492.522 8.35196H498.314V10.432H492.426V24.032L489.834 24.064V10.432H486.986V8.35196ZM498.585 16.192C498.585 10.816 502.553 7.87196 507.417 7.87196C512.313 7.87196 516.281 10.72 516.281 16.192C516.281 21.696 512.185 24.544 507.417 24.544C502.649 24.544 498.585 21.568 498.585 16.192ZM507.417 9.85596C504.217 9.85596 500.953 11.392 500.953 16.192C500.953 20.992 504.377 22.56 507.417 22.56C510.457 22.56 513.881 21.088 513.881 16.192C513.881 11.328 510.649 9.85596 507.417 9.85596ZM518.042 24.064V8.35196H519.354L520.058 14.272H520.346C520.954 8.89596 524.058 7.83996 526.458 7.83996C526.81 7.83996 527.162 7.83996 527.45 7.87196V10.368C527.226 10.336 526.842 10.304 526.426 10.304C524.314 10.304 520.634 11.104 520.634 15.648V24.064H518.042ZM542.969 24.544C538.105 24.544 535.705 22.304 535.705 19.552H537.817C537.817 21.44 539.545 22.752 542.969 22.752C545.881 22.752 547.833 21.952 547.833 19.584C547.833 15.232 535.705 19.392 535.705 12.64C535.705 9.34396 538.777 7.74396 543.225 7.74396C548.345 7.74396 550.073 9.98396 550.073 12.64H548.153C548.153 10.368 546.073 9.53596 543.225 9.53596C540.281 9.53596 537.945 10.24 537.945 12.64C537.945 16.992 550.073 12.8 550.073 19.552C550.073 22.56 547.929 24.576 542.969 24.544ZM551.522 16.192C551.522 10.816 555.49 7.87196 560.354 7.87196C565.25 7.87196 569.218 10.72 569.218 16.192C569.218 21.696 565.122 24.544 560.354 24.544C555.586 24.544 551.522 21.568 551.522 16.192ZM560.354 9.85596C557.154 9.85596 553.89 11.392 553.89 16.192C553.89 20.992 557.314 22.56 560.354 22.56C563.394 22.56 566.818 21.088 566.818 16.192C566.818 11.328 563.586 9.85596 560.354 9.85596ZM570.978 24.064V0.351963H573.57V24.064H570.978ZM575.318 16.192C575.318 10.816 579.286 7.87196 584.15 7.87196C589.046 7.87196 593.014 10.72 593.014 16.192C593.014 21.696 588.918 24.544 584.15 24.544C579.382 24.544 575.318 21.568 575.318 16.192ZM584.15 9.85596C580.95 9.85596 577.686 11.392 577.686 16.192C577.686 20.992 581.11 22.56 584.15 22.56C587.19 22.56 590.614 21.088 590.614 16.192C590.614 11.328 587.382 9.85596 584.15 9.85596ZM8.22377 58.544C4.47977 58.544 0.447773 56.496 0.447773 50.192C0.447773 43.92 4.47977 41.872 8.22377 41.872C11.3598 41.872 13.5358 43.824 14.3358 46.928H14.6558V34.352H17.2158V58.064H15.6158L14.8158 52.144H14.4958C13.9518 55.824 11.5518 58.544 8.22377 58.544ZM8.44777 43.376C4.83177 43.376 3.03977 46.352 3.03977 50.192C3.03977 54.064 4.83177 57.04 8.44777 57.04C12.6398 57.04 14.2718 53.456 14.2718 49.68C14.2718 46.416 12.4158 43.376 8.44777 43.376ZM18.8265 53.968C18.7945 50.896 21.6425 48.976 25.2585 48.752C25.8025 48.72 26.3785 48.688 26.9545 48.688C28.5225 48.688 30.0585 48.848 30.9225 49.232V48.08C30.9225 44.88 29.3545 43.824 26.5705 43.824C24.2025 43.824 21.8985 45.008 20.4585 46.672L20.1065 44.56C21.7065 43.088 23.9145 41.872 26.5705 41.872C30.7625 41.872 33.4825 43.728 33.4825 47.856V58.064H32.1065L31.0825 53.136C29.8025 56.752 27.0185 58.352 23.9465 58.352C21.0665 58.352 18.9225 56.912 18.8265 53.968ZM25.1625 49.872C22.1545 50.416 21.1625 52.336 21.4825 54.096C21.7385 55.504 23.0185 56.528 24.9705 56.528C27.9785 56.528 29.9625 54.288 30.8585 52.496L30.8905 50.16C30.1225 49.872 28.6825 49.68 27.3065 49.68C26.5385 49.68 25.7705 49.744 25.1625 49.872ZM35.724 42.352H37.1L37.772 47.888C38.092 44.304 40.684 41.872 44.012 41.872C47.372 41.872 49.676 44.368 49.676 47.44V58.064H47.116V47.152C47.116 45.2 45.644 43.344 43.084 43.344C40.428 43.344 38.316 45.968 38.316 49.36V58.064H35.724V42.352ZM60.047 58.544C54.479 58.544 51.439 54.992 51.439 50.192C51.439 45.424 54.479 41.872 60.047 41.872C64.527 41.872 66.831 45.008 67.311 46.768H64.719C64.239 45.2 62.671 43.696 60.047 43.696C57.167 43.696 54.031 45.584 54.031 50.192C54.031 54.832 57.263 56.72 60.047 56.72C62.671 56.72 64.239 55.504 64.719 53.648H67.311C66.799 55.664 64.527 58.544 60.047 58.544ZM77.3768 58.544C72.4168 58.544 68.3528 55.6 68.3528 50.192C68.3528 44.976 72.0328 41.872 77.2808 41.872C83.0728 41.872 86.0488 45.584 85.8888 51.088H71.0088C71.1048 55.024 74.3688 56.688 77.3768 56.688C80.8328 56.688 82.3368 55.184 83.1048 53.296H85.6968C84.4808 56.144 82.1128 58.544 77.3768 58.544ZM77.2808 43.664C73.0248 43.696 71.0408 46.704 70.9768 49.552H83.2008C83.1368 47.056 81.5048 43.632 77.2808 43.664ZM87.6528 58.064V42.352H88.9648L89.6688 48.272H89.9568C90.5648 42.896 93.6688 41.84 96.0688 41.84C96.4208 41.84 96.7728 41.84 97.0608 41.872V44.368C96.8368 44.336 96.4528 44.304 96.0368 44.304C93.9248 44.304 90.2448 45.104 90.2448 49.648V58.064H87.6528ZM104.886 58.544C100.022 58.544 97.6215 56.304 97.6215 53.552H99.7335C99.7335 55.44 101.462 56.752 104.886 56.752C107.798 56.752 109.75 55.952 109.75 53.584C109.75 49.232 97.6215 53.392 97.6215 46.64C97.6215 43.344 100.694 41.744 105.142 41.744C110.262 41.744 111.99 43.984 111.99 46.64H110.07C110.07 44.368 107.99 43.536 105.142 43.536C102.198 43.536 99.8615 44.24 99.8615 46.64C99.8615 50.992 111.99 46.8 111.99 53.552C111.99 56.56 109.846 58.576 104.886 58.544ZM120.068 42.352H124.484L122.02 37.776H125.764L125.444 42.352H132.548V44.432H125.476V52.912C125.476 55.696 126.916 56.624 128.836 56.624C129.988 56.624 131.268 56.272 132.548 55.824V58.064C131.172 58.32 129.796 58.512 128.58 58.512C125.316 58.512 122.916 57.232 122.916 52.72V44.432H120.068V42.352ZM134.047 50.192C134.047 44.816 138.015 41.872 142.879 41.872C147.775 41.872 151.743 44.72 151.743 50.192C151.743 55.696 147.647 58.544 142.879 58.544C138.111 58.544 134.047 55.568 134.047 50.192ZM142.879 43.856C139.679 43.856 136.415 45.392 136.415 50.192C136.415 54.992 139.839 56.56 142.879 56.56C145.919 56.56 149.343 55.088 149.343 50.192C149.343 45.328 146.111 43.856 142.879 43.856ZM168.773 58.544C163.813 58.544 159.749 55.6 159.749 50.192C159.749 44.976 163.429 41.872 168.677 41.872C174.469 41.872 177.445 45.584 177.285 51.088H162.405C162.501 55.024 165.765 56.688 168.773 56.688C172.229 56.688 173.733 55.184 174.501 53.296H177.093C175.877 56.144 173.509 58.544 168.773 58.544ZM168.677 43.664C164.421 43.696 162.437 46.704 162.373 49.552H174.597C174.533 47.056 172.901 43.632 168.677 43.664ZM177.4 42.352H180.44L184.824 49.808H185.912L190.296 42.352H193.336L188.408 50.192L193.336 58.064H190.296L185.912 50.608H184.824L180.44 58.064H177.4L182.328 50.192L177.4 42.352ZM194.588 34.352H197.212V46.864C197.244 44.592 199.868 41.872 202.876 41.872C206.684 41.872 208.54 44.368 208.54 47.44V58.064H205.98V47.152C205.98 45.296 204.86 43.408 202.428 43.408C199.292 43.408 197.18 46.672 197.18 49.552V58.064H194.588V34.352ZM209.983 42.352H214.271V58.064H211.711V44.88H209.983V42.352ZM210.399 38.288C210.399 37.296 211.199 36.496 212.159 36.496C213.151 36.496 213.951 37.296 213.951 38.288C213.951 39.248 213.151 40.048 212.159 40.048C211.199 40.048 210.399 39.248 210.399 38.288ZM216.509 34.352H219.101V46.928H219.389C220.189 43.824 222.365 41.872 225.501 41.872C229.245 41.872 233.277 43.92 233.277 50.192C233.277 56.496 229.245 58.544 225.501 58.544C222.173 58.544 219.773 55.824 219.229 52.144H218.941L218.141 58.064H216.509V34.352ZM219.485 49.68C219.453 53.456 221.117 57.04 225.277 57.04C228.893 57.04 230.717 54.064 230.717 50.192C230.717 46.352 228.893 43.376 225.277 43.376C221.309 43.376 219.485 46.416 219.485 49.68ZM234.248 42.352H238.536V58.064H235.976V44.88H234.248V42.352ZM234.664 38.288C234.664 37.296 235.464 36.496 236.424 36.496C237.416 36.496 238.216 37.296 238.216 38.288C238.216 39.248 237.416 40.048 236.424 40.048C235.464 40.048 234.664 39.248 234.664 38.288ZM240.198 42.352H244.614L242.15 37.776H245.894L245.574 42.352H252.678V44.432H245.606V52.912C245.606 55.696 247.046 56.624 248.966 56.624C250.118 56.624 251.398 56.272 252.678 55.824V58.064C251.302 58.32 249.926 58.512 248.71 58.512C245.446 58.512 243.046 57.232 243.046 52.72V44.432H240.198V42.352ZM260.807 42.352H265.223L262.759 37.776H266.503L266.183 42.352H273.287V44.432H266.215V52.912C266.215 55.696 267.655 56.624 269.575 56.624C270.727 56.624 272.007 56.272 273.287 55.824V58.064C271.911 58.32 270.535 58.512 269.319 58.512C266.055 58.512 263.655 57.232 263.655 52.72V44.432H260.807V42.352ZM275.265 34.352H277.889V46.864C277.921 44.592 280.545 41.872 283.553 41.872C287.361 41.872 289.217 44.368 289.217 47.44V58.064H286.657V47.152C286.657 45.296 285.537 43.408 283.105 43.408C279.969 43.408 277.857 46.672 277.857 49.552V58.064H275.265V34.352ZM300.004 58.544C295.044 58.544 290.98 55.6 290.98 50.192C290.98 44.976 294.66 41.872 299.908 41.872C305.7 41.872 308.676 45.584 308.516 51.088H293.636C293.732 55.024 296.996 56.688 300.004 56.688C303.46 56.688 304.964 55.184 305.732 53.296H308.324C307.108 56.144 304.74 58.544 300.004 58.544ZM299.908 43.664C295.652 43.696 293.668 46.704 293.604 49.552H305.828C305.764 47.056 304.132 43.632 299.908 43.664ZM309.48 42.352H313.768V58.064H311.208V44.88H309.48V42.352ZM309.896 38.288C309.896 37.296 310.696 36.496 311.656 36.496C312.648 36.496 313.448 37.296 313.448 38.288C313.448 39.248 312.648 40.048 311.656 40.048C310.696 40.048 309.896 39.248 309.896 38.288ZM316.007 58.064V42.352H317.319L318.023 48.272H318.311C318.919 42.896 322.023 41.84 324.423 41.84C324.775 41.84 325.127 41.84 325.415 41.872V44.368C325.191 44.336 324.807 44.304 324.391 44.304C322.279 44.304 318.599 45.104 318.599 49.648V58.064H316.007ZM333.99 58.064V42.352H335.366L336.23 47.856C336.294 44.336 338.918 41.872 342.118 41.872C344.998 41.872 346.182 43.92 346.79 46.32H347.11C347.782 43.632 350.246 41.872 353.126 41.872C356.198 41.872 358.694 44.112 358.694 47.44V58.064H356.134V47.152C356.134 45.2 354.822 43.344 352.262 43.344C349.574 43.344 347.622 45.04 347.622 47.344V58.064H345.062V47.344C345.062 45.424 343.75 43.344 341.254 43.344C339.142 43.344 336.582 45.296 336.582 49.584V58.064H333.99ZM360.295 53.968C360.263 50.896 363.111 48.976 366.727 48.752C367.271 48.72 367.847 48.688 368.423 48.688C369.991 48.688 371.527 48.848 372.391 49.232V48.08C372.391 44.88 370.823 43.824 368.039 43.824C365.671 43.824 363.367 45.008 361.927 46.672L361.575 44.56C363.175 43.088 365.383 41.872 368.039 41.872C372.231 41.872 374.951 43.728 374.951 47.856V58.064H373.575L372.551 53.136C371.271 56.752 368.487 58.352 365.415 58.352C362.535 58.352 360.391 56.912 360.295 53.968ZM366.631 49.872C363.623 50.416 362.631 52.336 362.951 54.096C363.207 55.504 364.487 56.528 366.439 56.528C369.447 56.528 371.431 54.288 372.327 52.496L372.359 50.16C371.591 49.872 370.151 49.68 368.775 49.68C368.007 49.68 367.239 49.744 366.631 49.872ZM384.137 58.544C379.273 58.544 376.873 56.304 376.873 53.552H378.985C378.985 55.44 380.713 56.752 384.137 56.752C387.049 56.752 389.001 55.952 389.001 53.584C389.001 49.232 376.873 53.392 376.873 46.64C376.873 43.344 379.945 41.744 384.393 41.744C389.513 41.744 391.241 43.984 391.241 46.64H389.321C389.321 44.368 387.241 43.536 384.393 43.536C381.449 43.536 379.113 44.24 379.113 46.64C379.113 50.992 391.241 46.8 391.241 53.552C391.241 56.56 389.097 58.576 384.137 58.544ZM392.593 42.352H397.009L394.545 37.776H398.289L397.969 42.352H405.073V44.432H398.001V52.912C398.001 55.696 399.441 56.624 401.361 56.624C402.513 56.624 403.793 56.272 405.073 55.824V58.064C403.697 58.32 402.321 58.512 401.105 58.512C397.841 58.512 395.441 57.232 395.441 52.72V44.432H392.593V42.352ZM415.596 58.544C410.636 58.544 406.572 55.6 406.572 50.192C406.572 44.976 410.252 41.872 415.5 41.872C421.292 41.872 424.268 45.584 424.108 51.088H409.228C409.324 55.024 412.588 56.688 415.596 56.688C419.052 56.688 420.556 55.184 421.324 53.296H423.916C422.7 56.144 420.332 58.544 415.596 58.544ZM415.5 43.664C411.244 43.696 409.26 46.704 409.196 49.552H421.42C421.356 47.056 419.724 43.632 415.5 43.664ZM425.872 58.064V42.352H427.184L427.888 48.272H428.176C428.784 42.896 431.888 41.84 434.288 41.84C434.64 41.84 434.992 41.84 435.28 41.872V44.368C435.056 44.336 434.672 44.304 434.256 44.304C432.144 44.304 428.464 45.104 428.464 49.648V58.064H425.872ZM440.201 64.368C437.577 64.144 435.241 62.064 434.857 59.664H435.433C436.137 61.296 437.833 62.832 439.977 62.832C442.633 62.832 444.201 60.24 445.129 58.064H441.801L436.073 42.352H438.697L444.041 57.04H445.481L450.889 42.352H453.481L447.785 57.936C446.505 61.456 444.169 64.368 440.201 64.368ZM460.977 50.192C460.977 44.816 464.945 41.872 469.809 41.872C474.705 41.872 478.673 44.72 478.673 50.192C478.673 55.696 474.577 58.544 469.809 58.544C465.041 58.544 460.977 55.568 460.977 50.192ZM469.809 43.856C466.609 43.856 463.345 45.392 463.345 50.192C463.345 54.992 466.769 56.56 469.809 56.56C472.849 56.56 476.273 55.088 476.273 50.192C476.273 45.328 473.041 43.856 469.809 43.856ZM478.596 42.352H481.252L486.66 57.584H488.132L493.54 42.352H496.164L490.436 58.064H484.356L478.596 42.352ZM504.766 58.544C499.806 58.544 495.742 55.6 495.742 50.192C495.742 44.976 499.422 41.872 504.67 41.872C510.462 41.872 513.438 45.584 513.278 51.088H498.398C498.494 55.024 501.758 56.688 504.766 56.688C508.222 56.688 509.726 55.184 510.494 53.296H513.086C511.87 56.144 509.502 58.544 504.766 58.544ZM504.67 43.664C500.414 43.696 498.43 46.704 498.366 49.552H510.59C510.526 47.056 508.894 43.632 504.67 43.664ZM515.042 58.064V42.352H516.354L517.058 48.272H517.346C517.954 42.896 521.058 41.84 523.458 41.84C523.81 41.84 524.162 41.84 524.45 41.872V44.368C524.226 44.336 523.842 44.304 523.426 44.304C521.314 44.304 517.634 45.104 517.634 49.648V58.064H515.042ZM9.05577 92.544C3.48777 92.544 0.447773 88.992 0.447773 84.192C0.447773 79.424 3.48777 75.872 9.05577 75.872C13.5358 75.872 15.8398 79.008 16.3198 80.768H13.7278C13.2478 79.2 11.6798 77.696 9.05577 77.696C6.17577 77.696 3.03977 79.584 3.03977 84.192C3.03977 88.832 6.27177 90.72 9.05577 90.72C11.6798 90.72 13.2478 89.504 13.7278 87.648H16.3198C15.8078 89.664 13.5358 92.544 9.05577 92.544ZM18.0915 92.064V68.352H20.6835V92.064H18.0915ZM22.2715 87.968C22.2395 84.896 25.0875 82.976 28.7035 82.752C29.2475 82.72 29.8235 82.688 30.3995 82.688C31.9675 82.688 33.5035 82.848 34.3675 83.232V82.08C34.3675 78.88 32.7995 77.824 30.0155 77.824C27.6475 77.824 25.3435 79.008 23.9035 80.672L23.5515 78.56C25.1515 77.088 27.3595 75.872 30.0155 75.872C34.2075 75.872 36.9275 77.728 36.9275 81.856V92.064H35.5515L34.5275 87.136C33.2475 90.752 30.4635 92.352 27.3915 92.352C24.5115 92.352 22.3675 90.912 22.2715 87.968ZM28.6075 83.872C25.5995 84.416 24.6075 86.336 24.9275 88.096C25.1835 89.504 26.4635 90.528 28.4155 90.528C31.4235 90.528 33.4075 88.288 34.3035 86.496L34.3355 84.16C33.5675 83.872 32.1275 83.68 30.7515 83.68C29.9835 83.68 29.2155 83.744 28.6075 83.872ZM46.113 92.544C41.249 92.544 38.849 90.304 38.849 87.552H40.961C40.961 89.44 42.689 90.752 46.113 90.752C49.025 90.752 50.977 89.952 50.977 87.584C50.977 83.232 38.849 87.392 38.849 80.64C38.849 77.344 41.921 75.744 46.369 75.744C51.489 75.744 53.217 77.984 53.217 80.64H51.297C51.297 78.368 49.217 77.536 46.369 77.536C43.425 77.536 41.089 78.24 41.089 80.64C41.089 84.992 53.217 80.8 53.217 87.552C53.217 90.56 51.073 92.576 46.113 92.544ZM62.0893 92.544C57.2253 92.544 54.8253 90.304 54.8253 87.552H56.9373C56.9373 89.44 58.6653 90.752 62.0893 90.752C65.0013 90.752 66.9533 89.952 66.9533 87.584C66.9533 83.232 54.8253 87.392 54.8253 80.64C54.8253 77.344 57.8973 75.744 62.3453 75.744C67.4653 75.744 69.1933 77.984 69.1933 80.64H67.2733C67.2733 78.368 65.1933 77.536 62.3453 77.536C59.4013 77.536 57.0653 78.24 57.0653 80.64C57.0653 84.992 69.1933 80.8 69.1933 87.552C69.1933 90.56 67.0493 92.576 62.0893 92.544ZM70.3215 76.352H74.6095V92.064H72.0495V78.88H70.3215V76.352ZM70.7375 72.288C70.7375 71.296 71.5375 70.496 72.4975 70.496C73.4895 70.496 74.2895 71.296 74.2895 72.288C74.2895 73.248 73.4895 74.048 72.4975 74.048C71.5375 74.048 70.7375 73.248 70.7375 72.288ZM84.9758 92.544C79.4078 92.544 76.3678 88.992 76.3678 84.192C76.3678 79.424 79.4078 75.872 84.9758 75.872C89.4558 75.872 91.7598 79.008 92.2398 80.768H89.6478C89.1678 79.2 87.5998 77.696 84.9758 77.696C82.0958 77.696 78.9598 79.584 78.9598 84.192C78.9598 88.832 82.1918 90.72 84.9758 90.72C87.5998 90.72 89.1678 89.504 89.6478 87.648H92.2398C91.7278 89.664 89.4558 92.544 84.9758 92.544ZM93.3715 87.968C93.3395 84.896 96.1875 82.976 99.8035 82.752C100.348 82.72 100.924 82.688 101.5 82.688C103.068 82.688 104.604 82.848 105.468 83.232V82.08C105.468 78.88 103.9 77.824 101.116 77.824C98.7475 77.824 96.4435 79.008 95.0035 80.672L94.6515 78.56C96.2515 77.088 98.4595 75.872 101.116 75.872C105.308 75.872 108.028 77.728 108.028 81.856V92.064H106.652L105.628 87.136C104.348 90.752 101.564 92.352 98.4915 92.352C95.6115 92.352 93.4675 90.912 93.3715 87.968ZM99.7075 83.872C96.6995 84.416 95.7075 86.336 96.0275 88.096C96.2835 89.504 97.5635 90.528 99.5155 90.528C102.524 90.528 104.508 88.288 105.404 86.496L105.436 84.16C104.668 83.872 103.228 83.68 101.852 83.68C101.084 83.68 100.316 83.744 99.7075 83.872ZM110.269 92.064V68.352H112.861V92.064H110.269ZM129.111 92.544C125.367 92.544 121.335 90.496 121.335 84.192C121.335 77.92 125.367 75.872 129.111 75.872C132.247 75.872 134.423 77.824 135.223 80.928H135.543V68.352H138.103V92.064H136.503L135.703 86.144H135.383C134.839 89.824 132.439 92.544 129.111 92.544ZM129.335 77.376C125.719 77.376 123.927 80.352 123.927 84.192C123.927 88.064 125.719 91.04 129.335 91.04C133.527 91.04 135.159 87.456 135.159 83.68C135.159 80.416 133.303 77.376 129.335 77.376ZM139.714 87.968C139.682 84.896 142.53 82.976 146.146 82.752C146.69 82.72 147.266 82.688 147.842 82.688C149.41 82.688 150.946 82.848 151.81 83.232V82.08C151.81 78.88 150.242 77.824 147.458 77.824C145.09 77.824 142.786 79.008 141.346 80.672L140.994 78.56C142.594 77.088 144.802 75.872 147.458 75.872C151.65 75.872 154.37 77.728 154.37 81.856V92.064H152.994L151.97 87.136C150.69 90.752 147.906 92.352 144.834 92.352C141.954 92.352 139.81 90.912 139.714 87.968ZM146.05 83.872C143.042 84.416 142.05 86.336 142.37 88.096C142.626 89.504 143.906 90.528 145.858 90.528C148.866 90.528 150.85 88.288 151.746 86.496L151.778 84.16C151.01 83.872 149.57 83.68 148.194 83.68C147.426 83.68 146.658 83.744 146.05 83.872ZM156.612 76.352H157.988L158.66 81.888C158.98 78.304 161.572 75.872 164.9 75.872C168.26 75.872 170.564 78.368 170.564 81.44V92.064H168.004V81.152C168.004 79.2 166.532 77.344 163.972 77.344C161.316 77.344 159.204 79.968 159.204 83.36V92.064H156.612V76.352ZM180.935 92.544C175.367 92.544 172.327 88.992 172.327 84.192C172.327 79.424 175.367 75.872 180.935 75.872C185.415 75.872 187.719 79.008 188.199 80.768H185.607C185.127 79.2 183.559 77.696 180.935 77.696C178.055 77.696 174.919 79.584 174.919 84.192C174.919 88.832 178.151 90.72 180.935 90.72C183.559 90.72 185.127 89.504 185.607 87.648H188.199C187.687 89.664 185.415 92.544 180.935 92.544ZM198.264 92.544C193.304 92.544 189.24 89.6 189.24 84.192C189.24 78.976 192.92 75.872 198.168 75.872C203.96 75.872 206.936 79.584 206.776 85.088H191.896C191.992 89.024 195.256 90.688 198.264 90.688C201.72 90.688 203.224 89.184 203.992 87.296H206.584C205.368 90.144 203 92.544 198.264 92.544ZM198.168 77.664C193.912 77.696 191.928 80.704 191.864 83.552H204.088C204.024 81.056 202.392 77.632 198.168 77.664ZM214.851 76.352H218.563C218.563 76.352 217.763 75.104 217.571 73.376C217.123 69.568 219.587 68 222.947 68C224.227 68 226.211 68.32 227.107 69.376V71.36C226.115 70.528 225.091 70.112 223.651 70.112C223.587 70.112 223.523 70.112 223.491 70.112C218.819 70.208 220.387 76.352 220.387 76.352H226.179V78.432H220.291V92.032L217.699 92.064V78.432H214.851V76.352ZM226.45 84.192C226.45 78.816 230.418 75.872 235.282 75.872C240.178 75.872 244.146 78.72 244.146 84.192C244.146 89.696 240.05 92.544 235.282 92.544C230.514 92.544 226.45 89.568 226.45 84.192ZM235.282 77.856C232.082 77.856 228.818 79.392 228.818 84.192C228.818 88.992 232.242 90.56 235.282 90.56C238.322 90.56 241.746 89.088 241.746 84.192C241.746 79.328 238.514 77.856 235.282 77.856ZM245.907 92.064V76.352H247.219L247.923 82.272H248.211C248.819 76.896 251.923 75.84 254.323 75.84C254.675 75.84 255.027 75.84 255.315 75.872V78.368C255.091 78.336 254.707 78.304 254.291 78.304C252.179 78.304 248.499 79.104 248.499 83.648V92.064H245.907ZM257.164 92.064V76.352H258.54L259.404 81.856C259.468 78.336 262.092 75.872 265.292 75.872C268.172 75.872 269.356 77.92 269.964 80.32H270.284C270.956 77.632 273.42 75.872 276.3 75.872C279.372 75.872 281.868 78.112 281.868 81.44V92.064H279.308V81.152C279.308 79.2 277.996 77.344 275.436 77.344C272.748 77.344 270.796 79.04 270.796 81.344V92.064H268.236V81.344C268.236 79.424 266.924 77.344 264.428 77.344C262.316 77.344 259.756 79.296 259.756 83.584V92.064H257.164ZM291.053 92.544C286.189 92.544 283.789 90.304 283.789 87.552H285.901C285.901 89.44 287.629 90.752 291.053 90.752C293.965 90.752 295.917 89.952 295.917 87.584C295.917 83.232 283.789 87.392 283.789 80.64C283.789 77.344 286.861 75.744 291.309 75.744C296.429 75.744 298.157 77.984 298.157 80.64H296.237C296.237 78.368 294.157 77.536 291.309 77.536C288.365 77.536 286.029 78.24 286.029 80.64C286.029 84.992 298.157 80.8 298.157 87.552C298.157 90.56 296.013 92.576 291.053 92.544ZM301.365 90.624C301.365 89.6 302.229 88.736 303.253 88.736C304.309 88.736 305.141 89.6 305.141 90.624C305.141 91.68 304.309 92.512 303.253 92.512C302.229 92.512 301.365 91.68 301.365 90.624ZM316.014 69.664H326.638C331.15 69.664 333.422 73.088 333.422 76.544C333.422 80 331.15 83.424 326.638 83.424H318.798V92.064H316.014V69.664ZM318.798 71.744V81.344H326.638C329.806 81.344 331.246 78.592 331.246 76.544C331.246 74.496 329.806 71.744 326.638 71.744H318.798ZM333.655 87.968C333.623 84.896 336.471 82.976 340.087 82.752C340.631 82.72 341.207 82.688 341.783 82.688C343.351 82.688 344.887 82.848 345.751 83.232V82.08C345.751 78.88 344.183 77.824 341.399 77.824C339.031 77.824 336.727 79.008 335.287 80.672L334.935 78.56C336.535 77.088 338.743 75.872 341.399 75.872C345.591 75.872 348.311 77.728 348.311 81.856V92.064H346.935L345.911 87.136C344.631 90.752 341.847 92.352 338.775 92.352C335.895 92.352 333.751 90.912 333.655 87.968ZM339.991 83.872C336.983 84.416 335.991 86.336 336.311 88.096C336.567 89.504 337.847 90.528 339.799 90.528C342.807 90.528 344.791 88.288 345.687 86.496L345.719 84.16C344.951 83.872 343.511 83.68 342.135 83.68C341.367 83.68 340.599 83.744 339.991 83.872ZM350.553 92.064V76.352H351.865L352.569 82.272H352.857C353.465 76.896 356.569 75.84 358.969 75.84C359.321 75.84 359.673 75.84 359.961 75.872V78.368C359.737 78.336 359.353 78.304 358.937 78.304C356.825 78.304 353.145 79.104 353.145 83.648V92.064H350.553ZM361.234 76.352H365.65L363.186 71.776H366.93L366.61 76.352H373.714V78.432H366.642V86.912C366.642 89.696 368.082 90.624 370.002 90.624C371.154 90.624 372.434 90.272 373.714 89.824V92.064C372.338 92.32 370.962 92.512 369.746 92.512C366.482 92.512 364.082 91.232 364.082 86.72V78.432H361.234V76.352ZM374.893 76.352H379.181V92.064H376.621V78.88H374.893V76.352ZM375.309 72.288C375.309 71.296 376.109 70.496 377.069 70.496C378.061 70.496 378.861 71.296 378.861 72.288C378.861 73.248 378.061 74.048 377.069 74.048C376.109 74.048 375.309 73.248 375.309 72.288ZM389.547 92.544C383.979 92.544 380.939 88.992 380.939 84.192C380.939 79.424 383.979 75.872 389.547 75.872C394.027 75.872 396.331 79.008 396.811 80.768H394.219C393.739 79.2 392.171 77.696 389.547 77.696C386.667 77.696 383.531 79.584 383.531 84.192C383.531 88.832 386.763 90.72 389.547 90.72C392.171 90.72 393.739 89.504 394.219 87.648H396.811C396.299 89.664 394.027 92.544 389.547 92.544ZM397.783 76.352H402.071V92.064H399.511V78.88H397.783V76.352ZM398.199 72.288C398.199 71.296 398.999 70.496 399.959 70.496C400.951 70.496 401.751 71.296 401.751 72.288C401.751 73.248 400.951 74.048 399.959 74.048C398.999 74.048 398.199 73.248 398.199 72.288ZM406.901 100.064H404.309V76.352H405.941L406.741 82.272H407.029C407.573 78.592 409.973 75.872 413.301 75.872C417.045 75.872 421.077 77.92 421.077 84.224C421.077 90.496 417.045 92.544 413.301 92.544C410.165 92.544 407.989 90.592 407.189 87.488H406.901V100.064ZM413.077 77.376C408.917 77.376 407.253 80.96 407.285 84.736C407.285 88 409.109 91.04 413.077 91.04C416.693 91.04 418.517 88.064 418.517 84.224C418.517 80.352 416.693 77.376 413.077 77.376ZM422.208 87.968C422.176 84.896 425.024 82.976 428.64 82.752C429.184 82.72 429.76 82.688 430.336 82.688C431.904 82.688 433.44 82.848 434.304 83.232V82.08C434.304 78.88 432.736 77.824 429.952 77.824C427.584 77.824 425.28 79.008 423.84 80.672L423.488 78.56C425.088 77.088 427.296 75.872 429.952 75.872C434.144 75.872 436.864 77.728 436.864 81.856V92.064H435.488L434.464 87.136C433.184 90.752 430.4 92.352 427.328 92.352C424.448 92.352 422.304 90.912 422.208 87.968ZM428.544 83.872C425.536 84.416 424.544 86.336 424.864 88.096C425.12 89.504 426.4 90.528 428.352 90.528C431.36 90.528 433.344 88.288 434.24 86.496L434.272 84.16C433.504 83.872 432.064 83.68 430.688 83.68C429.92 83.68 429.152 83.744 428.544 83.872ZM439.105 76.352H440.481L441.153 81.888C441.473 78.304 444.065 75.872 447.393 75.872C450.753 75.872 453.057 78.368 453.057 81.44V92.064H450.497V81.152C450.497 79.2 449.025 77.344 446.465 77.344C443.809 77.344 441.697 79.968 441.697 83.36V92.064H439.105V76.352ZM454.724 76.352H459.14L456.676 71.776H460.42L460.1 76.352H467.204V78.432H460.132V86.912C460.132 89.696 461.572 90.624 463.492 90.624C464.644 90.624 465.924 90.272 467.204 89.824V92.064C465.828 92.32 464.452 92.512 463.236 92.512C459.972 92.512 457.572 91.232 457.572 86.72V78.432H454.724V76.352ZM476.127 92.544C471.263 92.544 468.863 90.304 468.863 87.552H470.975C470.975 89.44 472.703 90.752 476.127 90.752C479.039 90.752 480.991 89.952 480.991 87.584C480.991 83.232 468.863 87.392 468.863 80.64C468.863 77.344 471.935 75.744 476.383 75.744C481.503 75.744 483.231 77.984 483.231 80.64H481.311C481.311 78.368 479.231 77.536 476.383 77.536C473.439 77.536 471.103 78.24 471.103 80.64C471.103 84.992 483.231 80.8 483.231 87.552C483.231 90.56 481.087 92.576 476.127 92.544ZM490.861 76.352H493.517L497.421 91.392H499.309L503.213 76.352H508.493L512.397 91.392H514.317L518.221 76.352H520.845L516.397 92.064H510.317L506.189 76.672H505.549L501.421 92.064H495.341L490.861 76.352ZM521.249 76.352H525.537V92.064H522.977V78.88H521.249V76.352ZM521.665 72.288C521.665 71.296 522.465 70.496 523.425 70.496C524.417 70.496 525.217 71.296 525.217 72.288C525.217 73.248 524.417 74.048 523.425 74.048C522.465 74.048 521.665 73.248 521.665 72.288ZM527.775 92.064V68.352H530.367V92.064H527.775ZM532.595 92.064V68.352H535.187V92.064H532.595ZM544.142 68.352H546.734V80.928H547.022C547.822 77.824 549.998 75.872 553.134 75.872C556.878 75.872 560.91 77.92 560.91 84.192C560.91 90.496 556.878 92.544 553.134 92.544C549.806 92.544 547.406 89.824 546.862 86.144H546.574L545.774 92.064H544.142V68.352ZM547.118 83.68C547.086 87.456 548.75 91.04 552.91 91.04C556.526 91.04 558.35 88.064 558.35 84.192C558.35 80.352 556.526 77.376 552.91 77.376C548.942 77.376 547.118 80.416 547.118 83.68ZM570.974 92.544C566.014 92.544 561.95 89.6 561.95 84.192C561.95 78.976 565.63 75.872 570.878 75.872C576.67 75.872 579.646 79.584 579.486 85.088H564.606C564.702 89.024 567.966 90.688 570.974 90.688C574.43 90.688 575.934 89.184 576.702 87.296H579.294C578.078 90.144 575.71 92.544 570.974 92.544ZM570.878 77.664C566.622 77.696 564.638 80.704 564.574 83.552H576.798C576.734 81.056 575.102 77.632 570.878 77.664ZM-0.000226561 128.528C2.07977 128.464 3.07177 127.216 3.07177 124.304V112.88H1.34377V110.352H5.63177V124.496C5.63177 128.56 4.28777 130.352 -0.000226561 130.576V128.528ZM1.75977 106.288C1.75977 105.296 2.55977 104.496 3.55177 104.496C4.51177 104.496 5.31177 105.296 5.31177 106.288C5.31177 107.248 4.51177 108.048 3.55177 108.048C2.55977 108.048 1.75977 107.248 1.75977 106.288ZM13.5368 126.544C10.1768 126.544 7.87277 124.048 7.87277 120.976V110.352H10.4328V121.264C10.4328 123.44 11.9048 125.072 14.4648 125.072C17.1208 125.072 19.2328 122.448 19.2328 119.056V110.352H21.8248V126.064H20.4488L19.7768 120.4H19.4888C19.3288 123.952 16.8328 126.544 13.5368 126.544ZM31.3638 126.544C27.6198 126.544 23.5878 124.496 23.5878 118.192C23.5878 111.92 27.6198 109.872 31.3638 109.872C34.4998 109.872 36.6758 111.824 37.4758 114.928H37.7958V102.352H40.3558V126.064H38.7558L37.9558 120.144H37.6358C37.0918 123.824 34.6918 126.544 31.3638 126.544ZM31.5878 111.376C27.9718 111.376 26.1798 114.352 26.1798 118.192C26.1798 122.064 27.9718 125.04 31.5878 125.04C35.7798 125.04 37.4118 121.456 37.4118 117.68C37.4118 114.416 35.5558 111.376 31.5878 111.376ZM49.6465 126.544C45.7105 126.544 42.1265 124.592 42.1265 118.224C42.1265 111.824 45.7105 109.872 49.6465 109.872C52.9745 109.872 55.3745 112.592 55.9185 116.272H56.2385L56.9745 110.32H58.5745V124.048C58.5745 128.688 56.0465 132.624 50.8945 132.624C48.2705 132.624 45.0705 131.376 45.0705 128.272H45.5505C45.5505 129.552 46.7345 131.408 50.2865 131.408C53.5185 131.408 55.8865 129.168 55.9825 124.016V121.488H55.6625C54.8625 124.592 52.7185 126.544 49.6465 126.544ZM44.7185 118.224C44.7185 122.544 46.7665 125.104 49.9025 125.104C53.7105 125.104 55.6305 121.968 55.6305 118.736C55.6305 115.28 54.2865 111.312 49.9025 111.312C46.7665 111.312 44.7185 113.872 44.7185 118.224ZM69.3455 126.544C64.3855 126.544 60.3215 123.6 60.3215 118.192C60.3215 112.976 64.0015 109.872 69.2495 109.872C75.0415 109.872 78.0175 113.584 77.8575 119.088H62.9775C63.0735 123.024 66.3375 124.688 69.3455 124.688C72.8015 124.688 74.3055 123.184 75.0735 121.296H77.6655C76.4495 124.144 74.0815 126.544 69.3455 126.544ZM69.2495 111.664C64.9935 111.696 63.0095 114.704 62.9455 117.552H75.1695C75.1055 115.056 73.4735 111.632 69.2495 111.664ZM86.6675 126.544C82.9235 126.544 78.8915 124.496 78.8915 118.192C78.8915 111.92 82.9235 109.872 86.6675 109.872C89.8035 109.872 91.9795 111.824 92.7795 114.928H93.0995V102.352H95.6595V126.064H94.0595L93.2595 120.144H92.9395C92.3955 123.824 89.9955 126.544 86.6675 126.544ZM86.8915 111.376C83.2755 111.376 81.4835 114.352 81.4835 118.192C81.4835 122.064 83.2755 125.04 86.8915 125.04C91.0835 125.04 92.7155 121.456 92.7155 117.68C92.7155 114.416 90.8595 111.376 86.8915 111.376ZM104.157 118.192C104.157 112.816 108.125 109.872 112.989 109.872C117.885 109.872 121.853 112.72 121.853 118.192C121.853 123.696 117.757 126.544 112.989 126.544C108.221 126.544 104.157 123.568 104.157 118.192ZM112.989 111.856C109.789 111.856 106.525 113.392 106.525 118.192C106.525 122.992 109.949 124.56 112.989 124.56C116.029 124.56 119.453 123.088 119.453 118.192C119.453 113.328 116.221 111.856 112.989 111.856ZM123.613 110.352H124.989L125.661 115.888C125.981 112.304 128.573 109.872 131.901 109.872C135.261 109.872 137.565 112.368 137.565 115.44V126.064H135.005V115.152C135.005 113.2 133.533 111.344 130.973 111.344C128.317 111.344 126.205 113.968 126.205 117.36V126.064H123.613V110.352ZM145.958 110.352H150.374L147.91 105.776H151.654L151.334 110.352H158.438V112.432H151.366V120.912C151.366 123.696 152.806 124.624 154.726 124.624C155.878 124.624 157.158 124.272 158.438 123.824V126.064C157.062 126.32 155.686 126.512 154.47 126.512C151.206 126.512 148.806 125.232 148.806 120.72V112.432H145.958V110.352ZM160.417 102.352H163.041V114.864C163.073 112.592 165.697 109.872 168.705 109.872C172.513 109.872 174.369 112.368 174.369 115.44V126.064H171.809V115.152C171.809 113.296 170.689 111.408 168.257 111.408C165.121 111.408 163.009 114.672 163.009 117.552V126.064H160.417V102.352ZM185.156 126.544C180.196 126.544 176.132 123.6 176.132 118.192C176.132 112.976 179.812 109.872 185.06 109.872C190.852 109.872 193.828 113.584 193.668 119.088H178.788C178.884 123.024 182.148 124.688 185.156 124.688C188.612 124.688 190.116 123.184 190.884 121.296H193.476C192.26 124.144 189.892 126.544 185.156 126.544ZM185.06 111.664C180.804 111.696 178.82 114.704 178.756 117.552H190.98C190.916 115.056 189.284 111.632 185.06 111.664ZM194.632 110.352H198.92V126.064H196.36V112.88H194.632V110.352ZM195.048 106.288C195.048 105.296 195.848 104.496 196.808 104.496C197.8 104.496 198.6 105.296 198.6 106.288C198.6 107.248 197.8 108.048 196.808 108.048C195.848 108.048 195.048 107.248 195.048 106.288ZM201.158 126.064V110.352H202.47L203.174 116.272H203.462C204.07 110.896 207.174 109.84 209.574 109.84C209.926 109.84 210.278 109.84 210.566 109.872V112.368C210.342 112.336 209.958 112.304 209.542 112.304C207.43 112.304 203.75 113.104 203.75 117.648V126.064H201.158ZM218.566 110.352H222.982L220.518 105.776H224.262L223.942 110.352H231.046V112.432H223.974V120.912C223.974 123.696 225.414 124.624 227.334 124.624C228.486 124.624 229.766 124.272 231.046 123.824V126.064C229.67 126.32 228.294 126.512 227.078 126.512C223.814 126.512 221.414 125.232 221.414 120.72V112.432H218.566V110.352ZM241.568 126.544C236.608 126.544 232.544 123.6 232.544 118.192C232.544 112.976 236.224 109.872 241.472 109.872C247.264 109.872 250.24 113.584 250.08 119.088H235.2C235.296 123.024 238.56 124.688 241.568 124.688C245.024 124.688 246.528 123.184 247.296 121.296H249.888C248.672 124.144 246.304 126.544 241.568 126.544ZM241.472 111.664C237.216 111.696 235.232 114.704 235.168 117.552H247.392C247.328 115.056 245.696 111.632 241.472 111.664ZM259.722 126.544C254.154 126.544 251.114 122.992 251.114 118.192C251.114 113.424 254.154 109.872 259.722 109.872C264.202 109.872 266.506 113.008 266.986 114.768H264.394C263.914 113.2 262.346 111.696 259.722 111.696C256.842 111.696 253.706 113.584 253.706 118.192C253.706 122.832 256.938 124.72 259.722 124.72C262.346 124.72 263.914 123.504 264.394 121.648H266.986C266.474 123.664 264.202 126.544 259.722 126.544ZM268.758 102.352H271.382V114.864C271.414 112.592 274.038 109.872 277.046 109.872C280.854 109.872 282.71 112.368 282.71 115.44V126.064H280.15V115.152C280.15 113.296 279.03 111.408 276.598 111.408C273.462 111.408 271.35 114.672 271.35 117.552V126.064H268.758V102.352ZM284.953 110.352H286.329L287.001 115.888C287.321 112.304 289.913 109.872 293.241 109.872C296.601 109.872 298.905 112.368 298.905 115.44V126.064H296.345V115.152C296.345 113.2 294.873 111.344 292.313 111.344C289.657 111.344 287.545 113.968 287.545 117.36V126.064H284.953V110.352ZM300.348 110.352H304.636V126.064H302.076V112.88H300.348V110.352ZM300.764 106.288C300.764 105.296 301.564 104.496 302.524 104.496C303.516 104.496 304.316 105.296 304.316 106.288C304.316 107.248 303.516 108.048 302.524 108.048C301.564 108.048 300.764 107.248 300.764 106.288ZM314.17 126.544C310.426 126.544 306.394 124.496 306.394 118.224C306.394 111.92 310.426 109.872 314.17 109.872C317.498 109.872 319.898 112.592 320.442 116.272H320.762L321.562 110.352H323.162V134.064H320.602V121.488H320.282C319.482 124.592 317.306 126.544 314.17 126.544ZM314.394 111.376C310.778 111.376 308.986 114.352 308.986 118.224C308.986 122.064 310.778 125.04 314.394 125.04C318.362 125.04 320.218 122 320.218 118.736C320.218 114.96 318.586 111.376 314.394 111.376ZM331.077 126.544C327.717 126.544 325.413 124.048 325.413 120.976V110.352H327.973V121.264C327.973 123.44 329.445 125.072 332.005 125.072C334.661 125.072 336.773 122.448 336.773 119.056V110.352H339.365V126.064H337.989L337.317 120.4H337.029C336.869 123.952 334.373 126.544 331.077 126.544ZM350.152 126.544C345.192 126.544 341.128 123.6 341.128 118.192C341.128 112.976 344.808 109.872 350.056 109.872C355.848 109.872 358.824 113.584 358.664 119.088H343.784C343.88 123.024 347.144 124.688 350.152 124.688C353.608 124.688 355.112 123.184 355.88 121.296H358.472C357.256 124.144 354.888 126.544 350.152 126.544ZM350.056 111.664C345.8 111.696 343.816 114.704 343.752 117.552H355.976C355.912 115.056 354.28 111.632 350.056 111.664ZM364.076 126.512C363.052 126.512 362.188 125.648 362.188 124.624C362.188 123.6 363.052 122.736 364.076 122.736C365.132 122.736 365.964 123.6 365.964 124.624C365.964 126 364.62 127.28 363.82 127.76H362.668C363.308 127.312 363.66 127.024 364.076 126.512ZM384.581 126.544C379.621 126.544 375.557 123.6 375.557 118.192C375.557 112.976 379.237 109.872 384.485 109.872C390.277 109.872 393.253 113.584 393.093 119.088H378.213C378.309 123.024 381.573 124.688 384.581 124.688C388.037 124.688 389.541 123.184 390.309 121.296H392.901C391.685 124.144 389.317 126.544 384.581 126.544ZM384.485 111.664C380.229 111.696 378.245 114.704 378.181 117.552H390.405C390.341 115.056 388.709 111.632 384.485 111.664ZM393.208 110.352H396.248L400.632 117.808H401.72L406.104 110.352H409.144L404.216 118.192L409.144 126.064H406.104L401.72 118.608H400.632L396.248 126.064H393.208L398.136 118.192L393.208 110.352ZM412.987 134.064H410.395V110.352H412.027L412.827 116.272H413.115C413.659 112.592 416.059 109.872 419.387 109.872C423.131 109.872 427.163 111.92 427.163 118.224C427.163 124.496 423.131 126.544 419.387 126.544C416.251 126.544 414.075 124.592 413.275 121.488H412.987V134.064ZM419.163 111.376C415.003 111.376 413.339 114.96 413.371 118.736C413.371 122 415.195 125.04 419.163 125.04C422.779 125.04 424.603 122.064 424.603 118.224C424.603 114.352 422.779 111.376 419.163 111.376ZM428.934 126.064V110.352H430.246L430.95 116.272H431.238C431.846 110.896 434.95 109.84 437.35 109.84C437.702 109.84 438.054 109.84 438.342 109.872V112.368C438.118 112.336 437.734 112.304 437.318 112.304C435.206 112.304 431.526 113.104 431.526 117.648V126.064H428.934ZM447.986 126.544C443.026 126.544 438.962 123.6 438.962 118.192C438.962 112.976 442.642 109.872 447.89 109.872C453.682 109.872 456.658 113.584 456.498 119.088H441.618C441.714 123.024 444.978 124.688 447.986 124.688C451.442 124.688 452.946 123.184 453.714 121.296H456.306C455.09 124.144 452.722 126.544 447.986 126.544ZM447.89 111.664C443.634 111.696 441.65 114.704 441.586 117.552H453.81C453.746 115.056 452.114 111.632 447.89 111.664ZM465.206 126.544C460.342 126.544 457.942 124.304 457.942 121.552H460.054C460.054 123.44 461.782 124.752 465.206 124.752C468.118 124.752 470.07 123.952 470.07 121.584C470.07 117.232 457.942 121.392 457.942 114.64C457.942 111.344 461.014 109.744 465.462 109.744C470.582 109.744 472.31 111.984 472.31 114.64H470.39C470.39 112.368 468.31 111.536 465.462 111.536C462.518 111.536 460.182 112.24 460.182 114.64C460.182 118.992 472.31 114.8 472.31 121.552C472.31 124.56 470.166 126.576 465.206 126.544ZM481.182 126.544C476.318 126.544 473.918 124.304 473.918 121.552H476.03C476.03 123.44 477.758 124.752 481.182 124.752C484.094 124.752 486.046 123.952 486.046 121.584C486.046 117.232 473.918 121.392 473.918 114.64C473.918 111.344 476.99 109.744 481.438 109.744C486.558 109.744 488.286 111.984 488.286 114.64H486.366C486.366 112.368 484.286 111.536 481.438 111.536C478.494 111.536 476.158 112.24 476.158 114.64C476.158 118.992 488.286 114.8 488.286 121.552C488.286 124.56 486.142 126.576 481.182 126.544ZM489.414 110.352H493.702V126.064H491.142V112.88H489.414V110.352ZM489.83 106.288C489.83 105.296 490.63 104.496 491.59 104.496C492.582 104.496 493.382 105.296 493.382 106.288C493.382 107.248 492.582 108.048 491.59 108.048C490.63 108.048 489.83 107.248 489.83 106.288ZM495.46 118.192C495.46 112.816 499.428 109.872 504.292 109.872C509.188 109.872 513.156 112.72 513.156 118.192C513.156 123.696 509.06 126.544 504.292 126.544C499.524 126.544 495.46 123.568 495.46 118.192ZM504.292 111.856C501.092 111.856 497.828 113.392 497.828 118.192C497.828 122.992 501.252 124.56 504.292 124.56C507.332 124.56 510.756 123.088 510.756 118.192C510.756 113.328 507.524 111.856 504.292 111.856ZM514.917 110.352H516.293L516.965 115.888C517.285 112.304 519.877 109.872 523.205 109.872C526.565 109.872 528.869 112.368 528.869 115.44V126.064H526.309V115.152C526.309 113.2 524.837 111.344 522.277 111.344C519.621 111.344 517.509 113.968 517.509 117.36V126.064H514.917V110.352ZM538.056 126.544C533.192 126.544 530.792 124.304 530.792 121.552H532.904C532.904 123.44 534.632 124.752 538.056 124.752C540.968 124.752 542.92 123.952 542.92 121.584C542.92 117.232 530.792 121.392 530.792 114.64C530.792 111.344 533.864 109.744 538.312 109.744C543.432 109.744 545.16 111.984 545.16 114.64H543.24C543.24 112.368 541.16 111.536 538.312 111.536C535.368 111.536 533.032 112.24 533.032 114.64C533.032 118.992 545.16 114.8 545.16 121.552C545.16 124.56 543.016 126.576 538.056 126.544ZM5.95177 160.064C1.31177 155.328 1.31177 142.368 5.95177 137.664H8.25577C3.55177 142.368 3.55177 155.328 8.25577 160.064H5.95177ZM10.2015 155.968C10.1695 152.896 13.0175 150.976 16.6335 150.752C17.1775 150.72 17.7535 150.688 18.3295 150.688C19.8975 150.688 21.4335 150.848 22.2975 151.232V150.08C22.2975 146.88 20.7295 145.824 17.9455 145.824C15.5775 145.824 13.2735 147.008 11.8335 148.672L11.4815 146.56C13.0815 145.088 15.2895 143.872 17.9455 143.872C22.1375 143.872 24.8575 145.728 24.8575 149.856V160.064H23.4815L22.4575 155.136C21.1775 158.752 18.3935 160.352 15.3215 160.352C12.4415 160.352 10.2975 158.912 10.2015 155.968ZM16.5375 151.872C13.5295 152.416 12.5375 154.336 12.8575 156.096C13.1135 157.504 14.3935 158.528 16.3455 158.528C19.3535 158.528 21.3375 156.288 22.2335 154.496L22.2655 152.16C21.4975 151.872 20.0575 151.68 18.6815 151.68C17.9135 151.68 17.1455 151.744 16.5375 151.872ZM27.099 136.352H29.691V148.928H29.979C30.779 145.824 32.955 143.872 36.091 143.872C39.835 143.872 43.867 145.92 43.867 152.192C43.867 158.496 39.835 160.544 36.091 160.544C32.763 160.544 30.363 157.824 29.819 154.144H29.531L28.731 160.064H27.099V136.352ZM30.075 151.68C30.043 155.456 31.707 159.04 35.867 159.04C39.483 159.04 41.307 156.064 41.307 152.192C41.307 148.352 39.483 145.376 35.867 145.376C31.899 145.376 30.075 148.416 30.075 151.68ZM45.6378 136.352H48.2618V148.864C48.2938 146.592 50.9178 143.872 53.9258 143.872C57.7338 143.872 59.5898 146.368 59.5898 149.44V160.064H57.0298V149.152C57.0298 147.296 55.9098 145.408 53.4778 145.408C50.3418 145.408 48.2298 148.672 48.2298 151.552V160.064H45.6378V136.352ZM61.0328 144.352H65.3208V160.064H62.7608V146.88H61.0328V144.352ZM61.4488 140.288C61.4488 139.296 62.2488 138.496 63.2088 138.496C64.2008 138.496 65.0008 139.296 65.0008 140.288C65.0008 141.248 64.2008 142.048 63.2088 142.048C62.2488 142.048 61.4488 141.248 61.4488 140.288ZM67.559 144.352H68.935L69.607 149.888C69.927 146.304 72.519 143.872 75.847 143.872C79.207 143.872 81.511 146.368 81.511 149.44V160.064H78.951V149.152C78.951 147.2 77.479 145.344 74.919 145.344C72.263 145.344 70.151 147.968 70.151 151.36V160.064H67.559V144.352ZM83.114 155.968C83.082 152.896 85.93 150.976 89.546 150.752C90.09 150.72 90.666 150.688 91.242 150.688C92.81 150.688 94.346 150.848 95.21 151.232V150.08C95.21 146.88 93.642 145.824 90.858 145.824C88.49 145.824 86.186 147.008 84.746 148.672L84.394 146.56C85.994 145.088 88.202 143.872 90.858 143.872C95.05 143.872 97.77 145.728 97.77 149.856V160.064H96.394L95.37 155.136C94.09 158.752 91.306 160.352 88.234 160.352C85.354 160.352 83.21 158.912 83.114 155.968ZM89.45 151.872C86.442 152.416 85.45 154.336 85.77 156.096C86.026 157.504 87.306 158.528 89.258 158.528C92.266 158.528 94.25 156.288 95.146 154.496L95.178 152.16C94.41 151.872 92.97 151.68 91.594 151.68C90.826 151.68 90.058 151.744 89.45 151.872ZM103.084 166.368C100.46 166.144 98.1235 164.064 97.7395 161.664H98.3155C99.0195 163.296 100.716 164.832 102.86 164.832C105.516 164.832 107.084 162.24 108.012 160.064H104.684L98.9555 144.352H101.58L106.924 159.04H108.364L113.772 144.352H116.364L110.668 159.936C109.388 163.456 107.052 166.368 103.084 166.368ZM116.004 155.968C115.972 152.896 118.82 150.976 122.436 150.752C122.98 150.72 123.556 150.688 124.132 150.688C125.7 150.688 127.236 150.848 128.1 151.232V150.08C128.1 146.88 126.532 145.824 123.748 145.824C121.38 145.824 119.076 147.008 117.636 148.672L117.284 146.56C118.884 145.088 121.092 143.872 123.748 143.872C127.94 143.872 130.66 145.728 130.66 149.856V160.064H129.284L128.26 155.136C126.98 158.752 124.196 160.352 121.124 160.352C118.244 160.352 116.1 158.912 116.004 155.968ZM122.34 151.872C119.332 152.416 118.34 154.336 118.66 156.096C118.916 157.504 120.196 158.528 122.148 158.528C125.156 158.528 127.14 156.288 128.036 154.496L128.068 152.16C127.3 151.872 125.86 151.68 124.484 151.68C123.716 151.68 122.948 151.744 122.34 151.872ZM136.23 160.064H133.894C138.63 155.328 138.63 142.368 133.894 137.664H136.23C140.87 142.368 140.87 155.328 136.23 160.064ZM146.463 160.512C145.439 160.512 144.575 159.648 144.575 158.624C144.575 157.6 145.439 156.736 146.463 156.736C147.519 156.736 148.351 157.6 148.351 158.624C148.351 160 147.007 161.28 146.207 161.76H145.055C145.695 161.312 146.047 161.024 146.463 160.512ZM158.424 160.064V144.352H159.736L160.44 150.272H160.728C161.336 144.896 164.44 143.84 166.84 143.84C167.192 143.84 167.544 143.84 167.832 143.872V146.368C167.608 146.336 167.224 146.304 166.808 146.304C164.696 146.304 161.016 147.104 161.016 151.648V160.064H158.424ZM169.682 136.352H172.306V148.864C172.338 146.592 174.962 143.872 177.97 143.872C181.778 143.872 183.634 146.368 183.634 149.44V160.064H181.074V149.152C181.074 147.296 179.954 145.408 177.522 145.408C174.386 145.408 172.274 148.672 172.274 151.552V160.064H169.682V136.352ZM188.324 166.368C185.7 166.144 183.364 164.064 182.98 161.664H183.556C184.26 163.296 185.956 164.832 188.1 164.832C190.756 164.832 192.324 162.24 193.252 160.064H189.924L184.196 144.352H186.82L192.164 159.04H193.604L199.012 144.352H201.604L195.908 159.936C194.628 163.456 192.292 166.368 188.324 166.368ZM202.277 144.352H206.693L204.229 139.776H207.973L207.653 144.352H214.757V146.432H207.685V154.912C207.685 157.696 209.125 158.624 211.045 158.624C212.197 158.624 213.477 158.272 214.757 157.824V160.064C213.381 160.32 212.005 160.512 210.789 160.512C207.525 160.512 205.125 159.232 205.125 154.72V146.432H202.277V144.352ZM216.735 136.352H219.359V148.864C219.391 146.592 222.015 143.872 225.023 143.872C228.831 143.872 230.687 146.368 230.687 149.44V160.064H228.127V149.152C228.127 147.296 227.007 145.408 224.575 145.408C221.439 145.408 219.327 148.672 219.327 151.552V160.064H216.735V136.352ZM232.93 160.064V144.352H234.306L235.17 149.856C235.234 146.336 237.858 143.872 241.058 143.872C243.938 143.872 245.122 145.92 245.73 148.32H246.05C246.722 145.632 249.186 143.872 252.066 143.872C255.138 143.872 257.634 146.112 257.634 149.44V160.064H255.074V149.152C255.074 147.2 253.762 145.344 251.202 145.344C248.514 145.344 246.562 147.04 246.562 149.344V160.064H244.002V149.344C244.002 147.424 242.69 145.344 240.194 145.344C238.082 145.344 235.522 147.296 235.522 151.584V160.064H232.93ZM271.626 160.064C266.986 155.328 266.986 142.368 271.626 137.664H273.93C269.226 142.368 269.226 155.328 273.93 160.064H271.626ZM275.939 144.352H280.355L277.891 139.776H281.635L281.315 144.352H288.419V146.432H281.347V154.912C281.347 157.696 282.787 158.624 284.707 158.624C285.859 158.624 287.139 158.272 288.419 157.824V160.064C287.043 160.32 285.667 160.512 284.451 160.512C281.187 160.512 278.787 159.232 278.787 154.72V146.432H275.939V144.352ZM289.758 155.968C289.726 152.896 292.574 150.976 296.19 150.752C296.734 150.72 297.31 150.688 297.886 150.688C299.454 150.688 300.99 150.848 301.854 151.232V150.08C301.854 146.88 300.286 145.824 297.502 145.824C295.134 145.824 292.83 147.008 291.39 148.672L291.038 146.56C292.638 145.088 294.846 143.872 297.502 143.872C301.694 143.872 304.414 145.728 304.414 149.856V160.064H303.038L302.014 155.136C300.734 158.752 297.95 160.352 294.878 160.352C291.998 160.352 289.854 158.912 289.758 155.968ZM296.094 151.872C293.086 152.416 292.094 154.336 292.414 156.096C292.67 157.504 293.95 158.528 295.902 158.528C298.91 158.528 300.894 156.288 301.79 154.496L301.822 152.16C301.054 151.872 299.614 151.68 298.238 151.68C297.47 151.68 296.702 151.744 296.094 151.872ZM306.655 160.064V136.352H309.247V160.064H306.655ZM310.835 155.968C310.803 152.896 313.651 150.976 317.267 150.752C317.811 150.72 318.387 150.688 318.963 150.688C320.531 150.688 322.067 150.848 322.931 151.232V150.08C322.931 146.88 321.363 145.824 318.579 145.824C316.211 145.824 313.907 147.008 312.467 148.672L312.115 146.56C313.715 145.088 315.923 143.872 318.579 143.872C322.771 143.872 325.491 145.728 325.491 149.856V160.064H324.115L323.091 155.136C321.811 158.752 319.027 160.352 315.955 160.352C313.075 160.352 310.931 158.912 310.835 155.968ZM317.171 151.872C314.163 152.416 313.171 154.336 313.491 156.096C313.747 157.504 315.027 158.528 316.979 158.528C319.987 158.528 321.971 156.288 322.867 154.496L322.899 152.16C322.131 151.872 320.691 151.68 319.315 151.68C318.547 151.68 317.779 151.744 317.171 151.872ZM331.061 160.064H328.725C333.461 155.328 333.461 142.368 328.725 137.664H331.061C335.701 142.368 335.701 155.328 331.061 160.064ZM341.295 160.512C340.271 160.512 339.407 159.648 339.407 158.624C339.407 157.6 340.271 156.736 341.295 156.736C342.351 156.736 343.183 157.6 343.183 158.624C343.183 160 341.839 161.28 341.039 161.76H339.887C340.527 161.312 340.879 161.024 341.295 160.512ZM355.847 168.064H353.255V144.352H354.887L355.687 150.272H355.975C356.519 146.592 358.919 143.872 362.247 143.872C365.991 143.872 370.023 145.92 370.023 152.224C370.023 158.496 365.991 160.544 362.247 160.544C359.111 160.544 356.935 158.592 356.135 155.488H355.847V168.064ZM362.023 145.376C357.863 145.376 356.199 148.96 356.231 152.736C356.231 156 358.055 159.04 362.023 159.04C365.639 159.04 367.463 156.064 367.463 152.224C367.463 148.352 365.639 145.376 362.023 145.376ZM371.064 152.192C371.064 146.816 375.032 143.872 379.896 143.872C384.792 143.872 388.76 146.72 388.76 152.192C388.76 157.696 384.664 160.544 379.896 160.544C375.128 160.544 371.064 157.568 371.064 152.192ZM379.896 145.856C376.696 145.856 373.432 147.392 373.432 152.192C373.432 156.992 376.856 158.56 379.896 158.56C382.936 158.56 386.36 157.088 386.36 152.192C386.36 147.328 383.128 145.856 379.896 145.856ZM397.464 160.544C392.6 160.544 390.2 158.304 390.2 155.552H392.312C392.312 157.44 394.04 158.752 397.464 158.752C400.376 158.752 402.328 157.952 402.328 155.584C402.328 151.232 390.2 155.392 390.2 148.64C390.2 145.344 393.272 143.744 397.72 143.744C402.84 143.744 404.568 145.984 404.568 148.64H402.648C402.648 146.368 400.568 145.536 397.72 145.536C394.776 145.536 392.44 146.24 392.44 148.64C392.44 152.992 404.568 148.8 404.568 155.552C404.568 158.56 402.424 160.576 397.464 160.544ZM405.921 144.352H410.337L407.873 139.776H411.617L411.297 144.352H418.401V146.432H411.329V154.912C411.329 157.696 412.769 158.624 414.689 158.624C415.841 158.624 417.121 158.272 418.401 157.824V160.064C417.025 160.32 415.649 160.512 414.433 160.512C411.169 160.512 408.769 159.232 408.769 154.72V146.432H405.921V144.352ZM426.043 160.544C422.683 160.544 420.379 158.048 420.379 154.976V144.352H422.939V155.264C422.939 157.44 424.411 159.072 426.971 159.072C429.627 159.072 431.739 156.448 431.739 153.056V144.352H434.331V160.064H432.955L432.283 154.4H431.995C431.835 157.952 429.339 160.544 426.043 160.544ZM436.574 160.064V144.352H437.886L438.59 150.272H438.878C439.486 144.896 442.59 143.84 444.99 143.84C445.342 143.84 445.694 143.84 445.982 143.872V146.368C445.758 146.336 445.374 146.304 444.958 146.304C442.846 146.304 439.166 147.104 439.166 151.648V160.064H436.574ZM455.626 160.544C450.666 160.544 446.602 157.6 446.602 152.192C446.602 146.976 450.282 143.872 455.53 143.872C461.322 143.872 464.298 147.584 464.138 153.088H449.258C449.354 157.024 452.618 158.688 455.626 158.688C459.082 158.688 460.586 157.184 461.354 155.296H463.946C462.73 158.144 460.362 160.544 455.626 160.544ZM455.53 145.664C451.274 145.696 449.29 148.704 449.226 151.552H461.45C461.386 149.056 459.754 145.632 455.53 145.664ZM469.55 160.512C468.526 160.512 467.662 159.648 467.662 158.624C467.662 157.6 468.526 156.736 469.55 156.736C470.606 156.736 471.438 157.6 471.438 158.624C471.438 160 470.094 161.28 469.294 161.76H468.142C468.782 161.312 469.134 161.024 469.55 160.512ZM489.638 160.544C484.07 160.544 481.03 156.992 481.03 152.192C481.03 147.424 484.07 143.872 489.638 143.872C494.118 143.872 496.422 147.008 496.902 148.768H494.31C493.83 147.2 492.262 145.696 489.638 145.696C486.758 145.696 483.622 147.584 483.622 152.192C483.622 156.832 486.854 158.72 489.638 158.72C492.262 158.72 493.83 157.504 494.31 155.648H496.902C496.39 157.664 494.118 160.544 489.638 160.544ZM497.944 152.192C497.944 146.816 501.912 143.872 506.776 143.872C511.672 143.872 515.64 146.72 515.64 152.192C515.64 157.696 511.544 160.544 506.776 160.544C502.008 160.544 497.944 157.568 497.944 152.192ZM506.776 145.856C503.576 145.856 500.312 147.392 500.312 152.192C500.312 156.992 503.736 158.56 506.776 158.56C509.816 158.56 513.24 157.088 513.24 152.192C513.24 147.328 510.008 145.856 506.776 145.856ZM524.344 160.544C519.48 160.544 517.08 158.304 517.08 155.552H519.192C519.192 157.44 520.92 158.752 524.344 158.752C527.256 158.752 529.208 157.952 529.208 155.584C529.208 151.232 517.08 155.392 517.08 148.64C517.08 145.344 520.152 143.744 524.6 143.744C529.72 143.744 531.448 145.984 531.448 148.64H529.528C529.528 146.368 527.448 145.536 524.6 145.536C521.656 145.536 519.32 146.24 519.32 148.64C519.32 152.992 531.448 148.8 531.448 155.552C531.448 158.56 529.304 160.576 524.344 160.544ZM532.801 144.352H537.217L534.753 139.776H538.497L538.177 144.352H545.281V146.432H538.209V154.912C538.209 157.696 539.649 158.624 541.569 158.624C542.721 158.624 544.001 158.272 545.281 157.824V160.064C543.905 160.32 542.529 160.512 541.313 160.512C538.049 160.512 535.649 159.232 535.649 154.72V146.432H532.801V144.352ZM552.923 160.544C549.563 160.544 547.259 158.048 547.259 154.976V144.352H549.819V155.264C549.819 157.44 551.291 159.072 553.851 159.072C556.507 159.072 558.619 156.448 558.619 153.056V144.352H561.211V160.064H559.835L559.163 154.4H558.875C558.715 157.952 556.219 160.544 552.923 160.544ZM563.454 160.064V144.352H564.83L565.694 149.856C565.758 146.336 568.382 143.872 571.582 143.872C574.462 143.872 575.646 145.92 576.254 148.32H576.574C577.246 145.632 579.71 143.872 582.59 143.872C585.662 143.872 588.158 146.112 588.158 149.44V160.064H585.598V149.152C585.598 147.2 584.286 145.344 581.726 145.344C579.038 145.344 577.086 147.04 577.086 149.344V160.064H574.526V149.344C574.526 147.424 573.214 145.344 570.718 145.344C568.606 145.344 566.046 147.296 566.046 151.584V160.064H563.454ZM598.943 160.544C593.983 160.544 589.919 157.6 589.919 152.192C589.919 146.976 593.599 143.872 598.847 143.872C604.639 143.872 607.615 147.584 607.455 153.088H592.575C592.671 157.024 595.935 158.688 598.943 158.688C602.399 158.688 603.903 157.184 604.671 155.296H607.263C606.047 158.144 603.679 160.544 598.943 160.544ZM598.847 145.664C594.591 145.696 592.607 148.704 592.543 151.552H604.767C604.703 149.056 603.071 145.632 598.847 145.664ZM612.867 160.512C611.843 160.512 610.979 159.648 610.979 158.624C610.979 157.6 611.843 156.736 612.867 156.736C613.923 156.736 614.755 157.6 614.755 158.624C614.755 160 613.411 161.28 612.611 161.76H611.459C612.099 161.312 612.451 161.024 612.867 160.512ZM0.287773 189.968C0.255773 186.896 3.10377 184.976 6.71977 184.752C7.26377 184.72 7.83977 184.688 8.41577 184.688C9.98377 184.688 11.5198 184.848 12.3838 185.232V184.08C12.3838 180.88 10.8158 179.824 8.03177 179.824C5.66377 179.824 3.35977 181.008 1.91977 182.672L1.56777 180.56C3.16777 179.088 5.37577 177.872 8.03177 177.872C12.2238 177.872 14.9438 179.728 14.9438 183.856V194.064H13.5678L12.5438 189.136C11.2638 192.752 8.47977 194.352 5.40777 194.352C2.52777 194.352 0.383773 192.912 0.287773 189.968ZM6.62377 185.872C3.61577 186.416 2.62377 188.336 2.94377 190.096C3.19977 191.504 4.47977 192.528 6.43177 192.528C9.43977 192.528 11.4238 190.288 12.3198 188.496L12.3518 186.16C11.5838 185.872 10.1438 185.68 8.76777 185.68C7.99977 185.68 7.23177 185.744 6.62377 185.872ZM17.1853 178.352H18.5613L19.2333 183.888C19.5533 180.304 22.1453 177.872 25.4733 177.872C28.8333 177.872 31.1373 180.368 31.1373 183.44V194.064H28.5773V183.152C28.5773 181.2 27.1053 179.344 24.5453 179.344C21.8893 179.344 19.7773 181.968 19.7773 185.36V194.064H17.1853V178.352ZM40.6763 194.544C36.9323 194.544 32.9003 192.496 32.9003 186.192C32.9003 179.92 36.9323 177.872 40.6763 177.872C43.8123 177.872 45.9883 179.824 46.7883 182.928H47.1083V170.352H49.6683V194.064H48.0683L47.2683 188.144H46.9483C46.4043 191.824 44.0043 194.544 40.6763 194.544ZM40.9003 179.376C37.2843 179.376 35.4923 182.352 35.4923 186.192C35.4923 190.064 37.2843 193.04 40.9003 193.04C45.0923 193.04 46.7243 189.456 46.7243 185.68C46.7243 182.416 44.8683 179.376 40.9003 179.376ZM58.1653 186.192C58.1653 180.816 62.1333 177.872 66.9973 177.872C71.8933 177.872 75.8613 180.72 75.8613 186.192C75.8613 191.696 71.7653 194.544 66.9973 194.544C62.2293 194.544 58.1653 191.568 58.1653 186.192ZM66.9973 179.856C63.7973 179.856 60.5333 181.392 60.5333 186.192C60.5333 190.992 63.9573 192.56 66.9973 192.56C70.0373 192.56 73.4613 191.088 73.4613 186.192C73.4613 181.328 70.2293 179.856 66.9973 179.856ZM75.785 178.352H78.441L83.849 193.584H85.321L90.729 178.352H93.353L87.625 194.064H81.545L75.785 178.352ZM101.954 194.544C96.9943 194.544 92.9303 191.6 92.9303 186.192C92.9303 180.976 96.6103 177.872 101.858 177.872C107.65 177.872 110.626 181.584 110.466 187.088H95.5863C95.6823 191.024 98.9463 192.688 101.954 192.688C105.41 192.688 106.914 191.184 107.682 189.296H110.274C109.058 192.144 106.69 194.544 101.954 194.544ZM101.858 179.664C97.6023 179.696 95.6183 182.704 95.5543 185.552H107.778C107.714 183.056 106.082 179.632 101.858 179.664ZM112.23 194.064V178.352H113.542L114.246 184.272H114.534C115.142 178.896 118.246 177.84 120.646 177.84C120.998 177.84 121.35 177.84 121.638 177.872V180.368C121.414 180.336 121.03 180.304 120.614 180.304C118.502 180.304 114.822 181.104 114.822 185.648V194.064H112.23ZM121.41 189.968C121.378 186.896 124.226 184.976 127.842 184.752C128.386 184.72 128.962 184.688 129.538 184.688C131.106 184.688 132.642 184.848 133.506 185.232V184.08C133.506 180.88 131.938 179.824 129.154 179.824C126.786 179.824 124.482 181.008 123.042 182.672L122.69 180.56C124.29 179.088 126.498 177.872 129.154 177.872C133.346 177.872 136.066 179.728 136.066 183.856V194.064H134.69L133.666 189.136C132.386 192.752 129.602 194.352 126.53 194.352C123.65 194.352 121.506 192.912 121.41 189.968ZM127.746 185.872C124.738 186.416 123.746 188.336 124.066 190.096C124.322 191.504 125.602 192.528 127.554 192.528C130.562 192.528 132.546 190.288 133.442 188.496L133.474 186.16C132.706 185.872 131.266 185.68 129.89 185.68C129.122 185.68 128.354 185.744 127.746 185.872ZM138.308 194.064V170.352H140.9V194.064H138.308ZM143.128 194.064V170.352H145.72V194.064H143.128ZM157.266 202.064H154.674V178.352H156.306L157.106 184.272H157.394C157.938 180.592 160.338 177.872 163.666 177.872C167.41 177.872 171.442 179.92 171.442 186.224C171.442 192.496 167.41 194.544 163.666 194.544C160.53 194.544 158.354 192.592 157.554 189.488H157.266V202.064ZM163.442 179.376C159.282 179.376 157.618 182.96 157.65 186.736C157.65 190 159.474 193.04 163.442 193.04C167.058 193.04 168.882 190.064 168.882 186.224C168.882 182.352 167.058 179.376 163.442 179.376ZM173.213 194.064V178.352H174.525L175.229 184.272H175.517C176.125 178.896 179.229 177.84 181.629 177.84C181.981 177.84 182.333 177.84 182.621 177.872V180.368C182.397 180.336 182.013 180.304 181.597 180.304C179.485 180.304 175.805 181.104 175.805 185.648V194.064H173.213ZM192.264 194.544C187.304 194.544 183.24 191.6 183.24 186.192C183.24 180.976 186.92 177.872 192.168 177.872C197.96 177.872 200.936 181.584 200.776 187.088H185.896C185.992 191.024 189.256 192.688 192.264 192.688C195.72 192.688 197.224 191.184 197.992 189.296H200.584C199.368 192.144 197 194.544 192.264 194.544ZM192.168 179.664C187.912 179.696 185.928 182.704 185.864 185.552H198.088C198.024 183.056 196.392 179.632 192.168 179.664ZM209.484 194.544C204.62 194.544 202.22 192.304 202.22 189.552H204.332C204.332 191.44 206.06 192.752 209.484 192.752C212.396 192.752 214.348 191.952 214.348 189.584C214.348 185.232 202.22 189.392 202.22 182.64C202.22 179.344 205.292 177.744 209.74 177.744C214.86 177.744 216.588 179.984 216.588 182.64H214.668C214.668 180.368 212.588 179.536 209.74 179.536C206.796 179.536 204.46 180.24 204.46 182.64C204.46 186.992 216.588 182.8 216.588 189.552C216.588 192.56 214.444 194.576 209.484 194.544ZM227.061 194.544C222.101 194.544 218.037 191.6 218.037 186.192C218.037 180.976 221.717 177.872 226.965 177.872C232.757 177.872 235.733 181.584 235.573 187.088H220.693C220.789 191.024 224.053 192.688 227.061 192.688C230.517 192.688 232.021 191.184 232.789 189.296H235.381C234.165 192.144 231.797 194.544 227.061 194.544ZM226.965 179.664C222.709 179.696 220.725 182.704 220.661 185.552H232.885C232.821 183.056 231.189 179.632 226.965 179.664ZM237.337 178.352H238.713L239.385 183.888C239.705 180.304 242.297 177.872 245.625 177.872C248.985 177.872 251.289 180.368 251.289 183.44V194.064H248.729V183.152C248.729 181.2 247.257 179.344 244.697 179.344C242.041 179.344 239.929 181.968 239.929 185.36V194.064H237.337V178.352ZM252.956 178.352H257.372L254.908 173.776H258.652L258.332 178.352H265.436V180.432H258.364V188.912C258.364 191.696 259.804 192.624 261.724 192.624C262.876 192.624 264.156 192.272 265.436 191.824V194.064C264.06 194.32 262.684 194.512 261.468 194.512C258.204 194.512 255.804 193.232 255.804 188.72V180.432H252.956V178.352ZM266.774 189.968C266.742 186.896 269.59 184.976 273.206 184.752C273.75 184.72 274.326 184.688 274.902 184.688C276.47 184.688 278.006 184.848 278.87 185.232V184.08C278.87 180.88 277.302 179.824 274.518 179.824C272.15 179.824 269.846 181.008 268.406 182.672L268.054 180.56C269.654 179.088 271.862 177.872 274.518 177.872C278.71 177.872 281.43 179.728 281.43 183.856V194.064H280.054L279.03 189.136C277.75 192.752 274.966 194.352 271.894 194.352C269.014 194.352 266.87 192.912 266.774 189.968ZM273.11 185.872C270.102 186.416 269.11 188.336 269.43 190.096C269.686 191.504 270.966 192.528 272.918 192.528C275.926 192.528 277.91 190.288 278.806 188.496L278.838 186.16C278.07 185.872 276.63 185.68 275.254 185.68C274.486 185.68 273.718 185.744 273.11 185.872ZM283.096 178.352H287.512L285.048 173.776H288.792L288.472 178.352H295.576V180.432H288.504V188.912C288.504 191.696 289.944 192.624 291.864 192.624C293.016 192.624 294.296 192.272 295.576 191.824V194.064C294.2 194.32 292.824 194.512 291.608 194.512C288.344 194.512 285.944 193.232 285.944 188.72V180.432H283.096V178.352ZM296.754 178.352H301.042V194.064H298.482V180.88H296.754V178.352ZM297.17 174.288C297.17 173.296 297.97 172.496 298.93 172.496C299.922 172.496 300.722 173.296 300.722 174.288C300.722 175.248 299.922 176.048 298.93 176.048C297.97 176.048 297.17 175.248 297.17 174.288ZM302.8 186.192C302.8 180.816 306.768 177.872 311.632 177.872C316.528 177.872 320.496 180.72 320.496 186.192C320.496 191.696 316.4 194.544 311.632 194.544C306.864 194.544 302.8 191.568 302.8 186.192ZM311.632 179.856C308.432 179.856 305.168 181.392 305.168 186.192C305.168 190.992 308.592 192.56 311.632 192.56C314.672 192.56 318.096 191.088 318.096 186.192C318.096 181.328 314.864 179.856 311.632 179.856ZM322.257 178.352H323.633L324.305 183.888C324.625 180.304 327.217 177.872 330.545 177.872C333.905 177.872 336.209 180.368 336.209 183.44V194.064H333.649V183.152C333.649 181.2 332.177 179.344 329.617 179.344C326.961 179.344 324.849 181.968 324.849 185.36V194.064H322.257V178.352ZM339.732 192.624C339.732 191.6 340.596 190.736 341.62 190.736C342.676 190.736 343.508 191.6 343.508 192.624C343.508 193.68 342.676 194.512 341.62 194.512C340.596 194.512 339.732 193.68 339.732 192.624ZM353.516 171.664H372.14V174.128H364.236V194.064H361.42V174.128H353.516V171.664ZM373.849 170.352H376.473V182.864C376.505 180.592 379.129 177.872 382.137 177.872C385.945 177.872 387.801 180.368 387.801 183.44V194.064H385.241V183.152C385.241 181.296 384.121 179.408 381.689 179.408C378.553 179.408 376.441 182.672 376.441 185.552V194.064H373.849V170.352ZM398.588 194.544C393.628 194.544 389.564 191.6 389.564 186.192C389.564 180.976 393.244 177.872 398.492 177.872C404.284 177.872 407.26 181.584 407.1 187.088H392.22C392.316 191.024 395.58 192.688 398.588 192.688C402.044 192.688 403.548 191.184 404.316 189.296H406.908C405.692 192.144 403.324 194.544 398.588 194.544ZM398.492 179.664C394.236 179.696 392.252 182.704 392.188 185.552H404.412C404.348 183.056 402.716 179.632 398.492 179.664ZM424.134 194.544C419.174 194.544 415.11 191.6 415.11 186.192C415.11 180.976 418.79 177.872 424.038 177.872C429.83 177.872 432.806 181.584 432.646 187.088H417.766C417.862 191.024 421.126 192.688 424.134 192.688C427.59 192.688 429.094 191.184 429.862 189.296H432.454C431.238 192.144 428.87 194.544 424.134 194.544ZM424.038 179.664C419.782 179.696 417.798 182.704 417.734 185.552H429.958C429.894 183.056 428.262 179.632 424.038 179.664ZM432.261 178.352H434.917L440.325 193.584H441.797L447.205 178.352H449.829L444.101 194.064H438.021L432.261 178.352ZM458.431 194.544C453.471 194.544 449.407 191.6 449.407 186.192C449.407 180.976 453.087 177.872 458.335 177.872C464.127 177.872 467.103 181.584 466.943 187.088H452.063C452.159 191.024 455.423 192.688 458.431 192.688C461.887 192.688 463.391 191.184 464.159 189.296H466.751C465.535 192.144 463.167 194.544 458.431 194.544ZM458.335 179.664C454.079 179.696 452.095 182.704 452.031 185.552H464.255C464.191 183.056 462.559 179.632 458.335 179.664ZM468.707 178.352H470.083L470.755 183.888C471.075 180.304 473.667 177.872 476.995 177.872C480.355 177.872 482.659 180.368 482.659 183.44V194.064H480.099V183.152C480.099 181.2 478.627 179.344 476.067 179.344C473.411 179.344 471.299 181.968 471.299 185.36V194.064H468.707V178.352ZM484.326 178.352H488.742L486.278 173.776H490.022L489.702 178.352H496.806V180.432H489.734V188.912C489.734 191.696 491.174 192.624 493.094 192.624C494.246 192.624 495.526 192.272 496.806 191.824V194.064C495.43 194.32 494.054 194.512 492.838 194.512C489.574 194.512 487.174 193.232 487.174 188.72V180.432H484.326V178.352ZM504.87 189.968C504.838 186.896 507.686 184.976 511.302 184.752C511.846 184.72 512.422 184.688 512.998 184.688C514.566 184.688 516.102 184.848 516.966 185.232V184.08C516.966 180.88 515.398 179.824 512.614 179.824C510.246 179.824 507.942 181.008 506.502 182.672L506.15 180.56C507.75 179.088 509.958 177.872 512.614 177.872C516.806 177.872 519.526 179.728 519.526 183.856V194.064H518.15L517.126 189.136C515.846 192.752 513.062 194.352 509.99 194.352C507.11 194.352 504.966 192.912 504.87 189.968ZM511.206 185.872C508.198 186.416 507.206 188.336 507.526 190.096C507.782 191.504 509.062 192.528 511.014 192.528C514.022 192.528 516.006 190.288 516.902 188.496L516.934 186.16C516.166 185.872 514.726 185.68 513.35 185.68C512.582 185.68 511.814 185.744 511.206 185.872ZM520.968 178.352H525.256V194.064H522.696V180.88H520.968V178.352ZM521.384 174.288C521.384 173.296 522.184 172.496 523.144 172.496C524.136 172.496 524.936 173.296 524.936 174.288C524.936 175.248 524.136 176.048 523.144 176.048C522.184 176.048 521.384 175.248 521.384 174.288ZM527.494 194.064V178.352H528.87L529.734 183.856C529.798 180.336 532.422 177.872 535.622 177.872C538.502 177.872 539.686 179.92 540.294 182.32H540.614C541.286 179.632 543.75 177.872 546.63 177.872C549.702 177.872 552.198 180.112 552.198 183.44V194.064H549.638V183.152C549.638 181.2 548.326 179.344 545.766 179.344C543.078 179.344 541.126 181.04 541.126 183.344V194.064H538.566V183.344C538.566 181.424 537.254 179.344 534.758 179.344C532.646 179.344 530.086 181.296 530.086 185.584V194.064H527.494ZM561.383 194.544C556.519 194.544 554.119 192.304 554.119 189.552H556.231C556.231 191.44 557.959 192.752 561.383 192.752C564.295 192.752 566.247 191.952 566.247 189.584C566.247 185.232 554.119 189.392 554.119 182.64C554.119 179.344 557.191 177.744 561.639 177.744C566.759 177.744 568.487 179.984 568.487 182.64H566.567C566.567 180.368 564.487 179.536 561.639 179.536C558.695 179.536 556.359 180.24 556.359 182.64C556.359 186.992 568.487 182.8 568.487 189.552C568.487 192.56 566.343 194.576 561.383 194.544ZM576.566 178.352H580.982L578.518 173.776H582.262L581.942 178.352H589.046V180.432H581.974V188.912C581.974 191.696 583.414 192.624 585.334 192.624C586.486 192.624 587.766 192.272 589.046 191.824V194.064C587.67 194.32 586.294 194.512 585.078 194.512C581.814 194.512 579.414 193.232 579.414 188.72V180.432H576.566V178.352ZM590.544 186.192C590.544 180.816 594.512 177.872 599.376 177.872C604.272 177.872 608.24 180.72 608.24 186.192C608.24 191.696 604.144 194.544 599.376 194.544C594.608 194.544 590.544 191.568 590.544 186.192ZM599.376 179.856C596.176 179.856 592.912 181.392 592.912 186.192C592.912 190.992 596.336 192.56 599.376 192.56C602.416 192.56 605.84 191.088 605.84 186.192C605.84 181.328 602.608 179.856 599.376 179.856ZM9.05577 228.544C3.48777 228.544 0.447773 224.992 0.447773 220.192C0.447773 215.424 3.48777 211.872 9.05577 211.872C13.5358 211.872 15.8398 215.008 16.3198 216.768H13.7278C13.2478 215.2 11.6798 213.696 9.05577 213.696C6.17577 213.696 3.03977 215.584 3.03977 220.192C3.03977 224.832 6.27177 226.72 9.05577 226.72C11.6798 226.72 13.2478 225.504 13.7278 223.648H16.3198C15.8078 225.664 13.5358 228.544 9.05577 228.544ZM26.3855 228.544C21.4255 228.544 17.3615 225.6 17.3615 220.192C17.3615 214.976 21.0415 211.872 26.2895 211.872C32.0815 211.872 35.0575 215.584 34.8975 221.088H20.0175C20.1135 225.024 23.3775 226.688 26.3855 226.688C29.8415 226.688 31.3455 225.184 32.1135 223.296H34.7055C33.4895 226.144 31.1215 228.544 26.3855 228.544ZM26.2895 213.664C22.0335 213.696 20.0495 216.704 19.9855 219.552H32.2095C32.1455 217.056 30.5135 213.632 26.2895 213.664ZM36.6615 228.064V204.352H39.2535V228.064H36.6615ZM50.0255 228.544C45.0655 228.544 41.0015 225.6 41.0015 220.192C41.0015 214.976 44.6815 211.872 49.9295 211.872C55.7215 211.872 58.6975 215.584 58.5375 221.088H43.6575C43.7535 225.024 47.0175 226.688 50.0255 226.688C53.4815 226.688 54.9855 225.184 55.7535 223.296H58.3455C57.1295 226.144 54.7615 228.544 50.0255 228.544ZM49.9295 213.664C45.6735 213.696 43.6895 216.704 43.6255 219.552H55.8495C55.7855 217.056 54.1535 213.632 49.9295 213.664ZM60.3015 204.352H62.8935V216.928H63.1815C63.9815 213.824 66.1575 211.872 69.2935 211.872C73.0375 211.872 77.0695 213.92 77.0695 220.192C77.0695 226.496 73.0375 228.544 69.2935 228.544C65.9655 228.544 63.5655 225.824 63.0215 222.144H62.7335L61.9335 228.064H60.3015V204.352ZM63.2775 219.68C63.2455 223.456 64.9095 227.04 69.0695 227.04C72.6855 227.04 74.5095 224.064 74.5095 220.192C74.5095 216.352 72.6855 213.376 69.0695 213.376C65.1015 213.376 63.2775 216.416 63.2775 219.68ZM78.8403 228.064V212.352H80.1523L80.8563 218.272H81.1443C81.7523 212.896 84.8563 211.84 87.2563 211.84C87.6083 211.84 87.9603 211.84 88.2483 211.872V214.368C88.0243 214.336 87.6403 214.304 87.2243 214.304C85.1123 214.304 81.4323 215.104 81.4323 219.648V228.064H78.8403ZM88.0203 223.968C87.9883 220.896 90.8363 218.976 94.4523 218.752C94.9963 218.72 95.5723 218.688 96.1483 218.688C97.7163 218.688 99.2523 218.848 100.116 219.232V218.08C100.116 214.88 98.5483 213.824 95.7643 213.824C93.3963 213.824 91.0923 215.008 89.6523 216.672L89.3003 214.56C90.9003 213.088 93.1083 211.872 95.7643 211.872C99.9563 211.872 102.676 213.728 102.676 217.856V228.064H101.3L100.276 223.136C98.9963 226.752 96.2123 228.352 93.1403 228.352C90.2603 228.352 88.1163 226.912 88.0203 223.968ZM94.3563 219.872C91.3483 220.416 90.3563 222.336 90.6763 224.096C90.9323 225.504 92.2123 226.528 94.1643 226.528C97.1723 226.528 99.1563 224.288 100.052 222.496L100.084 220.16C99.3163 219.872 97.8763 219.68 96.5003 219.68C95.7323 219.68 94.9643 219.744 94.3563 219.872ZM104.342 212.352H108.758L106.294 207.776H110.038L109.718 212.352H116.822V214.432H109.75V222.912C109.75 225.696 111.19 226.624 113.11 226.624C114.262 226.624 115.542 226.272 116.822 225.824V228.064C115.446 228.32 114.07 228.512 112.854 228.512C109.59 228.512 107.19 227.232 107.19 222.72V214.432H104.342V212.352ZM127.344 228.544C122.384 228.544 118.32 225.6 118.32 220.192C118.32 214.976 122 211.872 127.248 211.872C133.04 211.872 136.016 215.584 135.856 221.088H120.976C121.072 225.024 124.336 226.688 127.344 226.688C130.8 226.688 132.304 225.184 133.072 223.296H135.664C134.448 226.144 132.08 228.544 127.344 228.544ZM127.248 213.664C122.992 213.696 121.008 216.704 120.944 219.552H133.168C133.104 217.056 131.472 213.632 127.248 213.664ZM143.771 212.352H148.187L145.723 207.776H149.467L149.147 212.352H156.251V214.432H149.179V222.912C149.179 225.696 150.619 226.624 152.539 226.624C153.691 226.624 154.971 226.272 156.251 225.824V228.064C154.875 228.32 153.499 228.512 152.283 228.512C149.019 228.512 146.619 227.232 146.619 222.72V214.432H143.771V212.352ZM158.229 204.352H160.853V216.864C160.885 214.592 163.509 211.872 166.517 211.872C170.325 211.872 172.181 214.368 172.181 217.44V228.064H169.621V217.152C169.621 215.296 168.501 213.408 166.069 213.408C162.933 213.408 160.821 216.672 160.821 219.552V228.064H158.229V204.352ZM182.968 228.544C178.008 228.544 173.944 225.6 173.944 220.192C173.944 214.976 177.624 211.872 182.872 211.872C188.664 211.872 191.64 215.584 191.48 221.088H176.6C176.696 225.024 179.96 226.688 182.968 226.688C186.424 226.688 187.928 225.184 188.696 223.296H191.288C190.072 226.144 187.704 228.544 182.968 228.544ZM182.872 213.664C178.616 213.696 176.632 216.704 176.568 219.552H188.792C188.728 217.056 187.096 213.632 182.872 213.664ZM199.97 228.064V212.352H201.282L201.986 218.272H202.274C202.882 212.896 205.986 211.84 208.386 211.84C208.738 211.84 209.09 211.84 209.378 211.872V214.368C209.154 214.336 208.77 214.304 208.354 214.304C206.242 214.304 202.562 215.104 202.562 219.648V228.064H199.97ZM210.428 212.352H214.716V228.064H212.156V214.88H210.428V212.352ZM210.844 208.288C210.844 207.296 211.644 206.496 212.604 206.496C213.596 206.496 214.396 207.296 214.396 208.288C214.396 209.248 213.596 210.048 212.604 210.048C211.644 210.048 210.844 209.248 210.844 208.288ZM225.082 228.544C219.514 228.544 216.474 224.992 216.474 220.192C216.474 215.424 219.514 211.872 225.082 211.872C229.562 211.872 231.866 215.008 232.346 216.768H229.754C229.274 215.2 227.706 213.696 225.082 213.696C222.202 213.696 219.066 215.584 219.066 220.192C219.066 224.832 222.298 226.72 225.082 226.72C227.706 226.72 229.274 225.504 229.754 223.648H232.346C231.834 225.664 229.562 228.544 225.082 228.544ZM234.118 204.352H236.742V216.864C236.774 214.592 239.398 211.872 242.406 211.872C246.214 211.872 248.07 214.368 248.07 217.44V228.064H245.51V217.152C245.51 215.296 244.39 213.408 241.958 213.408C238.822 213.408 236.71 216.672 236.71 219.552V228.064H234.118V204.352ZM250.313 212.352H251.689L252.361 217.888C252.681 214.304 255.273 211.872 258.601 211.872C261.961 211.872 264.265 214.368 264.265 217.44V228.064H261.705V217.152C261.705 215.2 260.233 213.344 257.673 213.344C255.017 213.344 252.905 215.968 252.905 219.36V228.064H250.313V212.352ZM275.052 228.544C270.092 228.544 266.028 225.6 266.028 220.192C266.028 214.976 269.708 211.872 274.956 211.872C280.748 211.872 283.724 215.584 283.564 221.088H268.684C268.78 225.024 272.044 226.688 275.052 226.688C278.508 226.688 280.012 225.184 280.78 223.296H283.372C282.156 226.144 279.788 228.544 275.052 228.544ZM274.956 213.664C270.7 213.696 268.716 216.704 268.652 219.552H280.876C280.812 217.056 279.18 213.632 274.956 213.664ZM292.272 228.544C287.408 228.544 285.008 226.304 285.008 223.552H287.12C287.12 225.44 288.848 226.752 292.272 226.752C295.184 226.752 297.136 225.952 297.136 223.584C297.136 219.232 285.008 223.392 285.008 216.64C285.008 213.344 288.08 211.744 292.528 211.744C297.648 211.744 299.376 213.984 299.376 216.64H297.456C297.456 214.368 295.376 213.536 292.528 213.536C289.584 213.536 287.248 214.24 287.248 216.64C287.248 220.992 299.376 216.8 299.376 223.552C299.376 226.56 297.232 228.576 292.272 228.544ZM308.248 228.544C303.384 228.544 300.984 226.304 300.984 223.552H303.096C303.096 225.44 304.824 226.752 308.248 226.752C311.16 226.752 313.112 225.952 313.112 223.584C313.112 219.232 300.984 223.392 300.984 216.64C300.984 213.344 304.056 211.744 308.504 211.744C313.624 211.744 315.352 213.984 315.352 216.64H313.432C313.432 214.368 311.352 213.536 308.504 213.536C305.56 213.536 303.224 214.24 303.224 216.64C303.224 220.992 315.352 216.8 315.352 223.552C315.352 226.56 313.208 228.576 308.248 228.544ZM323.527 220.192C323.527 214.816 327.495 211.872 332.359 211.872C337.255 211.872 341.223 214.72 341.223 220.192C341.223 225.696 337.127 228.544 332.359 228.544C327.591 228.544 323.527 225.568 323.527 220.192ZM332.359 213.856C329.159 213.856 325.895 215.392 325.895 220.192C325.895 224.992 329.319 226.56 332.359 226.56C335.399 226.56 338.823 225.088 338.823 220.192C338.823 215.328 335.591 213.856 332.359 213.856ZM341.848 212.352H345.56C345.56 212.352 344.76 211.104 344.568 209.376C344.12 205.568 346.584 204 349.944 204C351.224 204 353.208 204.32 354.104 205.376V207.36C353.112 206.528 352.088 206.112 350.648 206.112C350.584 206.112 350.52 206.112 350.488 206.112C345.816 206.208 347.384 212.352 347.384 212.352H353.176V214.432H347.288V228.032L344.696 228.064V214.432H341.848V212.352ZM362.724 228.064V205.664H365.508V228.064H362.724ZM368.068 212.352H369.444L370.116 217.888C370.436 214.304 373.028 211.872 376.356 211.872C379.716 211.872 382.02 214.368 382.02 217.44V228.064H379.46V217.152C379.46 215.2 377.988 213.344 375.428 213.344C372.772 213.344 370.66 215.968 370.66 219.36V228.064H368.068V212.352ZM391.559 228.544C387.815 228.544 383.783 226.496 383.783 220.192C383.783 213.92 387.815 211.872 391.559 211.872C394.695 211.872 396.871 213.824 397.671 216.928H397.991V204.352H400.551V228.064H398.951L398.151 222.144H397.831C397.287 225.824 394.887 228.544 391.559 228.544ZM391.783 213.376C388.167 213.376 386.375 216.352 386.375 220.192C386.375 224.064 388.167 227.04 391.783 227.04C395.975 227.04 397.607 223.456 397.607 219.68C397.607 216.416 395.751 213.376 391.783 213.376ZM402.002 212.352H406.29V228.064H403.73V214.88H402.002V212.352ZM402.418 208.288C402.418 207.296 403.218 206.496 404.178 206.496C405.17 206.496 405.97 207.296 405.97 208.288C405.97 209.248 405.17 210.048 404.178 210.048C403.218 210.048 402.418 209.248 402.418 208.288ZM407.888 223.968C407.856 220.896 410.704 218.976 414.32 218.752C414.864 218.72 415.44 218.688 416.016 218.688C417.584 218.688 419.12 218.848 419.984 219.232V218.08C419.984 214.88 418.416 213.824 415.632 213.824C413.264 213.824 410.96 215.008 409.52 216.672L409.168 214.56C410.768 213.088 412.976 211.872 415.632 211.872C419.824 211.872 422.544 213.728 422.544 217.856V228.064H421.168L420.144 223.136C418.864 226.752 416.08 228.352 413.008 228.352C410.128 228.352 407.984 226.912 407.888 223.968ZM414.224 219.872C411.216 220.416 410.224 222.336 410.544 224.096C410.8 225.504 412.08 226.528 414.032 226.528C417.04 226.528 419.024 224.288 419.92 222.496L419.952 220.16C419.184 219.872 417.744 219.68 416.368 219.68C415.6 219.68 414.832 219.744 414.224 219.872ZM424.785 212.352H426.161L426.833 217.888C427.153 214.304 429.745 211.872 433.073 211.872C436.433 211.872 438.737 214.368 438.737 217.44V228.064H436.177V217.152C436.177 215.2 434.705 213.344 432.145 213.344C429.489 213.344 427.377 215.968 427.377 219.36V228.064H424.785V212.352ZM455.835 228.544C450.267 228.544 447.227 224.992 447.227 220.192C447.227 215.424 450.267 211.872 455.835 211.872C460.315 211.872 462.619 215.008 463.099 216.768H460.507C460.027 215.2 458.459 213.696 455.835 213.696C452.955 213.696 449.819 215.584 449.819 220.192C449.819 224.832 453.051 226.72 455.835 226.72C458.459 226.72 460.027 225.504 460.507 223.648H463.099C462.587 225.664 460.315 228.544 455.835 228.544ZM464.87 228.064V204.352H467.462V228.064H464.87ZM469.05 223.968C469.018 220.896 471.866 218.976 475.482 218.752C476.026 218.72 476.602 218.688 477.178 218.688C478.746 218.688 480.282 218.848 481.146 219.232V218.08C481.146 214.88 479.578 213.824 476.794 213.824C474.426 213.824 472.122 215.008 470.682 216.672L470.33 214.56C471.93 213.088 474.138 211.872 476.794 211.872C480.986 211.872 483.706 213.728 483.706 217.856V228.064H482.33L481.306 223.136C480.026 226.752 477.242 228.352 474.17 228.352C471.29 228.352 469.146 226.912 469.05 223.968ZM475.386 219.872C472.378 220.416 471.386 222.336 471.706 224.096C471.962 225.504 473.242 226.528 475.194 226.528C478.202 226.528 480.186 224.288 481.082 222.496L481.114 220.16C480.346 219.872 478.906 219.68 477.53 219.68C476.762 219.68 475.994 219.744 475.386 219.872ZM492.892 228.544C488.028 228.544 485.628 226.304 485.628 223.552H487.74C487.74 225.44 489.468 226.752 492.892 226.752C495.804 226.752 497.756 225.952 497.756 223.584C497.756 219.232 485.628 223.392 485.628 216.64C485.628 213.344 488.7 211.744 493.148 211.744C498.268 211.744 499.996 213.984 499.996 216.64H498.076C498.076 214.368 495.996 213.536 493.148 213.536C490.204 213.536 487.868 214.24 487.868 216.64C487.868 220.992 499.996 216.8 499.996 223.552C499.996 226.56 497.852 228.576 492.892 228.544ZM508.868 228.544C504.004 228.544 501.604 226.304 501.604 223.552H503.716C503.716 225.44 505.444 226.752 508.868 226.752C511.78 226.752 513.732 225.952 513.732 223.584C513.732 219.232 501.604 223.392 501.604 216.64C501.604 213.344 504.676 211.744 509.124 211.744C514.244 211.744 515.972 213.984 515.972 216.64H514.052C514.052 214.368 511.972 213.536 509.124 213.536C506.18 213.536 503.844 214.24 503.844 216.64C503.844 220.992 515.972 216.8 515.972 223.552C515.972 226.56 513.828 228.576 508.868 228.544ZM517.1 212.352H521.388V228.064H518.828V214.88H517.1V212.352ZM517.516 208.288C517.516 207.296 518.316 206.496 519.276 206.496C520.268 206.496 521.068 207.296 521.068 208.288C521.068 209.248 520.268 210.048 519.276 210.048C518.316 210.048 517.516 209.248 517.516 208.288ZM531.755 228.544C526.187 228.544 523.147 224.992 523.147 220.192C523.147 215.424 526.187 211.872 531.755 211.872C536.235 211.872 538.539 215.008 539.019 216.768H536.427C535.947 215.2 534.379 213.696 531.755 213.696C528.875 213.696 525.739 215.584 525.739 220.192C525.739 224.832 528.971 226.72 531.755 226.72C534.379 226.72 535.947 225.504 536.427 223.648H539.019C538.507 225.664 536.235 228.544 531.755 228.544ZM540.15 223.968C540.118 220.896 542.966 218.976 546.582 218.752C547.126 218.72 547.702 218.688 548.278 218.688C549.846 218.688 551.382 218.848 552.246 219.232V218.08C552.246 214.88 550.678 213.824 547.894 213.824C545.526 213.824 543.222 215.008 541.782 216.672L541.43 214.56C543.03 213.088 545.238 211.872 547.894 211.872C552.086 211.872 554.806 213.728 554.806 217.856V228.064H553.43L552.406 223.136C551.126 226.752 548.342 228.352 545.27 228.352C542.39 228.352 540.246 226.912 540.15 223.968ZM546.486 219.872C543.478 220.416 542.486 222.336 542.806 224.096C543.062 225.504 544.342 226.528 546.294 226.528C549.302 226.528 551.286 224.288 552.182 222.496L552.214 220.16C551.446 219.872 550.006 219.68 548.63 219.68C547.862 219.68 547.094 219.744 546.486 219.872ZM557.048 228.064V204.352H559.64V228.064H557.048ZM0.351773 246.352H4.76777L2.30377 241.776H6.04777L5.72777 246.352H12.8318V248.432H5.75977V256.912C5.75977 259.696 7.19977 260.624 9.11977 260.624C10.2718 260.624 11.5518 260.272 12.8318 259.824V262.064C11.4558 262.32 10.0798 262.512 8.86377 262.512C5.59977 262.512 3.19977 261.232 3.19977 256.72V248.432H0.351773V246.352ZM14.8103 262.064V246.352H16.1223L16.8263 252.272H17.1143C17.7223 246.896 20.8263 245.84 23.2263 245.84C23.5783 245.84 23.9303 245.84 24.2183 245.872V248.368C23.9943 248.336 23.6103 248.304 23.1943 248.304C21.0823 248.304 17.4023 249.104 17.4023 253.648V262.064H14.8103ZM23.9903 257.968C23.9583 254.896 26.8063 252.976 30.4223 252.752C30.9663 252.72 31.5423 252.688 32.1183 252.688C33.6863 252.688 35.2223 252.848 36.0863 253.232V252.08C36.0863 248.88 34.5183 247.824 31.7343 247.824C29.3663 247.824 27.0623 249.008 25.6223 250.672L25.2703 248.56C26.8703 247.088 29.0783 245.872 31.7343 245.872C35.9263 245.872 38.6463 247.728 38.6463 251.856V262.064H37.2703L36.2463 257.136C34.9663 260.752 32.1823 262.352 29.1103 262.352C26.2303 262.352 24.0863 260.912 23.9903 257.968ZM30.3263 253.872C27.3183 254.416 26.3263 256.336 26.6463 258.096C26.9023 259.504 28.1823 260.528 30.1343 260.528C33.1423 260.528 35.1263 258.288 36.0223 256.496L36.0543 254.16C35.2863 253.872 33.8463 253.68 32.4703 253.68C31.7023 253.68 30.9343 253.744 30.3263 253.872ZM48.1838 262.544C44.4398 262.544 40.4078 260.496 40.4078 254.192C40.4078 247.92 44.4398 245.872 48.1838 245.872C51.3198 245.872 53.4958 247.824 54.2958 250.928H54.6158V238.352H57.1758V262.064H55.5758L54.7758 256.144H54.4558C53.9118 259.824 51.5118 262.544 48.1838 262.544ZM48.4078 247.376C44.7918 247.376 42.9998 250.352 42.9998 254.192C42.9998 258.064 44.7918 261.04 48.4078 261.04C52.5998 261.04 54.2318 257.456 54.2318 253.68C54.2318 250.416 52.3758 247.376 48.4078 247.376ZM58.6265 246.352H62.9145V262.064H60.3545V248.88H58.6265V246.352ZM59.0425 242.288C59.0425 241.296 59.8425 240.496 60.8025 240.496C61.7945 240.496 62.5945 241.296 62.5945 242.288C62.5945 243.248 61.7945 244.048 60.8025 244.048C59.8425 244.048 59.0425 243.248 59.0425 242.288ZM64.5768 246.352H68.9928L66.5288 241.776H70.2728L69.9528 246.352H77.0568V248.432H69.9848V256.912C69.9848 259.696 71.4248 260.624 73.3448 260.624C74.4968 260.624 75.7768 260.272 77.0568 259.824V262.064C75.6808 262.32 74.3048 262.512 73.0888 262.512C69.8248 262.512 67.4248 261.232 67.4248 256.72V248.432H64.5768V246.352ZM78.2353 246.352H82.5233V262.064H79.9633V248.88H78.2353V246.352ZM78.6513 242.288C78.6513 241.296 79.4513 240.496 80.4113 240.496C81.4033 240.496 82.2033 241.296 82.2033 242.288C82.2033 243.248 81.4033 244.048 80.4113 244.048C79.4513 244.048 78.6513 243.248 78.6513 242.288ZM84.2815 254.192C84.2815 248.816 88.2495 245.872 93.1135 245.872C98.0095 245.872 101.978 248.72 101.978 254.192C101.978 259.696 97.8815 262.544 93.1135 262.544C88.3455 262.544 84.2815 259.568 84.2815 254.192ZM93.1135 247.856C89.9135 247.856 86.6495 249.392 86.6495 254.192C86.6495 258.992 90.0735 260.56 93.1135 260.56C96.1535 260.56 99.5775 259.088 99.5775 254.192C99.5775 249.328 96.3455 247.856 93.1135 247.856ZM103.738 246.352H105.114L105.786 251.888C106.106 248.304 108.698 245.872 112.026 245.872C115.386 245.872 117.69 248.368 117.69 251.44V262.064H115.13V251.152C115.13 249.2 113.658 247.344 111.098 247.344C108.442 247.344 106.33 249.968 106.33 253.36V262.064H103.738V246.352ZM126.877 262.544C122.013 262.544 119.613 260.304 119.613 257.552H121.725C121.725 259.44 123.453 260.752 126.877 260.752C129.789 260.752 131.741 259.952 131.741 257.584C131.741 253.232 119.613 257.392 119.613 250.64C119.613 247.344 122.685 245.744 127.133 245.744C132.253 245.744 133.981 247.984 133.981 250.64H132.061C132.061 248.368 129.981 247.536 127.133 247.536C124.189 247.536 121.853 248.24 121.853 250.64C121.853 254.992 133.981 250.8 133.981 257.552C133.981 260.56 131.837 262.576 126.877 262.544ZM137.189 260.624C137.189 259.6 138.053 258.736 139.077 258.736C140.133 258.736 140.965 259.6 140.965 260.624C140.965 261.68 140.133 262.512 139.077 262.512C138.053 262.512 137.189 261.68 137.189 260.624Z" fill="white"/>
</svg>
