<svg width="638" height="99" viewBox="0 0 638 99" fill="none" xmlns="http://www.w3.org/2000/svg">
<path d="M-1.56164e-05 1.31191H18.624V3.77591H10.72V23.7119H7.90399V3.77591H-1.56164e-05V1.31191ZM20.3327 -8.7738e-05H22.9567V12.5119C22.9887 10.2399 25.6127 7.51991 28.6207 7.51991C32.4287 7.51991 34.2847 10.0159 34.2847 13.0879V23.7119H31.7247V12.7999C31.7247 10.9439 30.6047 9.05591 28.1727 9.05591C25.0367 9.05591 22.9247 12.3199 22.9247 15.1999V23.7119H20.3327V-8.7738e-05ZM35.7277 7.99991H40.0157V23.7119H37.4557V10.5279H35.7277V7.99991ZM36.1437 3.93591C36.1437 2.94391 36.9437 2.14391 37.9037 2.14391C38.8957 2.14391 39.6957 2.94391 39.6957 3.93591C39.6957 4.89591 38.8957 5.69591 37.9037 5.69591C36.9437 5.69591 36.1437 4.89591 36.1437 3.93591ZM49.198 24.1919C44.334 24.1919 41.934 21.9519 41.934 19.1999H44.046C44.046 21.0879 45.774 22.3999 49.198 22.3999C52.11 22.3999 54.062 21.5999 54.062 19.2319C54.062 14.8799 41.934 19.0399 41.934 12.2879C41.934 8.99191 45.006 7.39191 49.454 7.39191C54.574 7.39191 56.302 9.63191 56.302 12.2879H54.382C54.382 10.0159 52.302 9.18391 49.454 9.18391C46.51 9.18391 44.174 9.88791 44.174 12.2879C44.174 16.6399 56.302 12.4479 56.302 19.1999C56.302 22.2079 54.158 24.2239 49.198 24.1919ZM64.4765 15.8399C64.4765 10.4639 68.4445 7.51991 73.3085 7.51991C78.2045 7.51991 82.1725 10.3679 82.1725 15.8399C82.1725 21.3439 78.0765 24.1919 73.3085 24.1919C68.5405 24.1919 64.4765 21.2159 64.4765 15.8399ZM73.3085 9.50391C70.1085 9.50391 66.8445 11.0399 66.8445 15.8399C66.8445 20.6399 70.2685 22.2079 73.3085 22.2079C76.3485 22.2079 79.7725 20.7359 79.7725 15.8399C79.7725 10.9759 76.5405 9.50391 73.3085 9.50391ZM83.9327 7.99991H85.3087L85.9807 13.5359C86.3007 9.95191 88.8927 7.51991 92.2207 7.51991C95.5807 7.51991 97.8847 10.0159 97.8847 13.0879V23.7119H95.3247V12.7999C95.3247 10.8479 93.8527 8.99191 91.2927 8.99191C88.6367 8.99191 86.5247 11.6159 86.5247 15.0079V23.7119H83.9327V7.99991ZM100.128 23.7119V-8.7738e-05H102.72V23.7119H100.128ZM104.148 7.99991H108.436V23.7119H105.876V10.5279H104.148V7.99991ZM104.564 3.93591C104.564 2.94391 105.364 2.14391 106.324 2.14391C107.316 2.14391 108.116 2.94391 108.116 3.93591C108.116 4.89591 107.316 5.69591 106.324 5.69591C105.364 5.69591 104.564 4.89591 104.564 3.93591ZM110.674 7.99991H112.05L112.722 13.5359C113.042 9.95191 115.634 7.51991 118.962 7.51991C122.322 7.51991 124.626 10.0159 124.626 13.0879V23.7119H122.066V12.7999C122.066 10.8479 120.594 8.99191 118.034 8.99191C115.378 8.99191 113.266 11.6159 113.266 15.0079V23.7119H110.674V7.99991ZM135.413 24.1919C130.453 24.1919 126.389 21.2479 126.389 15.8399C126.389 10.6239 130.069 7.51991 135.317 7.51991C141.109 7.51991 144.085 11.2319 143.925 16.7359H129.045C129.141 20.6719 132.405 22.3359 135.413 22.3359C138.869 22.3359 140.373 20.8319 141.141 18.9439H143.733C142.517 21.7919 140.149 24.1919 135.413 24.1919ZM135.317 9.31191C131.061 9.34391 129.077 12.3519 129.013 15.1999H141.237C141.173 12.7039 139.541 9.27991 135.317 9.31191ZM160.959 24.1919C155.999 24.1919 151.935 21.2479 151.935 15.8399C151.935 10.6239 155.615 7.51991 160.863 7.51991C166.655 7.51991 169.631 11.2319 169.471 16.7359H154.591C154.687 20.6719 157.951 22.3359 160.959 22.3359C164.415 22.3359 165.919 20.8319 166.687 18.9439H169.279C168.063 21.7919 165.695 24.1919 160.959 24.1919ZM160.863 9.31191C156.607 9.34391 154.623 12.3519 154.559 15.1999H166.783C166.719 12.7039 165.087 9.27991 160.863 9.31191ZM169.086 7.99991H171.742L177.15 23.2319H178.622L184.03 7.99991H186.654L180.926 23.7119H174.846L169.086 7.99991ZM195.255 24.1919C190.295 24.1919 186.231 21.2479 186.231 15.8399C186.231 10.6239 189.911 7.51991 195.159 7.51991C200.951 7.51991 203.927 11.2319 203.767 16.7359H188.887C188.983 20.6719 192.247 22.3359 195.255 22.3359C198.711 22.3359 200.215 20.8319 200.983 18.9439H203.575C202.359 21.7919 199.991 24.1919 195.255 24.1919ZM195.159 9.31191C190.903 9.34391 188.919 12.3519 188.855 15.1999H201.079C201.015 12.7039 199.383 9.27991 195.159 9.31191ZM205.531 7.99991H206.907L207.579 13.5359C207.899 9.95191 210.491 7.51991 213.819 7.51991C217.179 7.51991 219.483 10.0159 219.483 13.0879V23.7119H216.923V12.7999C216.923 10.8479 215.451 8.99191 212.891 8.99191C210.235 8.99191 208.123 11.6159 208.123 15.0079V23.7119H205.531V7.99991ZM221.15 7.99991H225.566L223.102 3.42391H226.846L226.526 7.99991H233.63V10.0799H226.558V18.5599C226.558 21.3439 227.998 22.2719 229.918 22.2719C231.07 22.2719 232.35 21.9199 233.63 21.4719V23.7119C232.254 23.9679 230.878 24.1599 229.662 24.1599C226.398 24.1599 223.998 22.8799 223.998 18.3679V10.0799H221.15V7.99991ZM250.879 24.1919C245.919 24.1919 241.855 21.2479 241.855 15.8399C241.855 10.6239 245.535 7.51991 250.783 7.51991C256.575 7.51991 259.551 11.2319 259.391 16.7359H244.511C244.607 20.6719 247.871 22.3359 250.879 22.3359C254.335 22.3359 255.839 20.8319 256.607 18.9439H259.199C257.983 21.7919 255.615 24.1919 250.879 24.1919ZM250.783 9.31191C246.527 9.34391 244.543 12.3519 244.479 15.1999H256.703C256.639 12.7039 255.007 9.27991 250.783 9.31191ZM261.155 7.99991H262.531L263.203 13.5359C263.523 9.95191 266.115 7.51991 269.443 7.51991C272.803 7.51991 275.107 10.0159 275.107 13.0879V23.7119H272.547V12.7999C272.547 10.8479 271.075 8.99191 268.515 8.99191C265.859 8.99191 263.747 11.6159 263.747 15.0079V23.7119H261.155V7.99991ZM285.478 24.1919C279.91 24.1919 276.87 20.6399 276.87 15.8399C276.87 11.0719 279.91 7.51991 285.478 7.51991C289.958 7.51991 292.262 10.6559 292.742 12.4159H290.15C289.67 10.8479 288.102 9.34391 285.478 9.34391C282.598 9.34391 279.462 11.2319 279.462 15.8399C279.462 20.4799 282.694 22.3679 285.478 22.3679C288.102 22.3679 289.67 21.1519 290.15 19.2959H292.742C292.23 21.3119 289.958 24.1919 285.478 24.1919ZM293.784 15.8399C293.784 10.4639 297.752 7.51991 302.616 7.51991C307.512 7.51991 311.48 10.3679 311.48 15.8399C311.48 21.3439 307.384 24.1919 302.616 24.1919C297.848 24.1919 293.784 21.2159 293.784 15.8399ZM302.616 9.50391C299.416 9.50391 296.152 11.0399 296.152 15.8399C296.152 20.6399 299.576 22.2079 302.616 22.2079C305.656 22.2079 309.08 20.7359 309.08 15.8399C309.08 10.9759 305.848 9.50391 302.616 9.50391ZM318.904 24.1919C315.544 24.1919 313.24 21.6959 313.24 18.6239V7.99991H315.8V18.9119C315.8 21.0879 317.272 22.7199 319.832 22.7199C322.488 22.7199 324.6 20.0959 324.6 16.7039V7.99991H327.192V23.7119H325.816L325.144 18.0479H324.856C324.696 21.5999 322.2 24.1919 318.904 24.1919ZM329.435 23.7119V7.99991H330.747L331.451 13.9199H331.739C332.347 8.54391 335.451 7.48791 337.851 7.48791C338.203 7.48791 338.555 7.48791 338.843 7.51991V10.0159C338.619 9.98391 338.235 9.95191 337.819 9.95191C335.707 9.95191 332.027 10.7519 332.027 15.2959V23.7119H329.435ZM338.615 19.6159C338.583 16.5439 341.431 14.6239 345.047 14.3999C345.591 14.3679 346.167 14.3359 346.743 14.3359C348.311 14.3359 349.847 14.4959 350.711 14.8799V13.7279C350.711 10.5279 349.143 9.47191 346.359 9.47191C343.991 9.47191 341.687 10.6559 340.247 12.3199L339.895 10.2079C341.495 8.73591 343.703 7.51991 346.359 7.51991C350.551 7.51991 353.271 9.37591 353.271 13.5039V23.7119H351.895L350.871 18.7839C349.591 22.3999 346.807 23.9999 343.735 23.9999C340.855 23.9999 338.711 22.5599 338.615 19.6159ZM344.951 15.5199C341.943 16.0639 340.951 17.9839 341.271 19.7439C341.527 21.1519 342.807 22.1759 344.759 22.1759C347.767 22.1759 349.751 19.9359 350.647 18.1439L350.679 15.8079C349.911 15.5199 348.471 15.3279 347.095 15.3279C346.327 15.3279 345.559 15.3919 344.951 15.5199ZM362.553 24.1919C358.617 24.1919 355.033 22.2399 355.033 15.8719C355.033 9.47191 358.617 7.51991 362.553 7.51991C365.881 7.51991 368.281 10.2399 368.825 13.9199H369.145L369.881 7.96791H371.481V21.6959C371.481 26.3359 368.953 30.2719 363.801 30.2719C361.177 30.2719 357.977 29.0239 357.977 25.9199H358.457C358.457 27.1999 359.641 29.0559 363.193 29.0559C366.425 29.0559 368.793 26.8159 368.889 21.6639V19.1359H368.569C367.769 22.2399 365.625 24.1919 362.553 24.1919ZM357.625 15.8719C357.625 20.1919 359.673 22.7519 362.809 22.7519C366.617 22.7519 368.537 19.6159 368.537 16.3839C368.537 12.9279 367.193 8.95991 362.809 8.95991C359.673 8.95991 357.625 11.5199 357.625 15.8719ZM382.252 24.1919C377.292 24.1919 373.228 21.2479 373.228 15.8399C373.228 10.6239 376.908 7.51991 382.156 7.51991C387.948 7.51991 390.924 11.2319 390.764 16.7359H375.884C375.98 20.6719 379.244 22.3359 382.252 22.3359C385.708 22.3359 387.212 20.8319 387.98 18.9439H390.572C389.356 21.7919 386.988 24.1919 382.252 24.1919ZM382.156 9.31191C377.9 9.34391 375.916 12.3519 375.852 15.1999H388.076C388.012 12.7039 386.38 9.27991 382.156 9.31191ZM399.472 24.1919C394.608 24.1919 392.208 21.9519 392.208 19.1999H394.32C394.32 21.0879 396.048 22.3999 399.472 22.3999C402.384 22.3999 404.336 21.5999 404.336 19.2319C404.336 14.8799 392.208 19.0399 392.208 12.2879C392.208 8.99191 395.28 7.39191 399.728 7.39191C404.848 7.39191 406.576 9.63191 406.576 12.2879H404.656C404.656 10.0159 402.576 9.18391 399.728 9.18391C396.784 9.18391 394.448 9.88791 394.448 12.2879C394.448 16.6399 406.576 12.4479 406.576 19.1999C406.576 22.2079 404.432 24.2239 399.472 24.1919ZM417.822 31.7119H415.23V7.99991H416.862L417.662 13.9199H417.95C418.494 10.2399 420.894 7.51991 424.222 7.51991C427.966 7.51991 431.998 9.56791 431.998 15.8719C431.998 22.1439 427.966 24.1919 424.222 24.1919C421.086 24.1919 418.91 22.2399 418.11 19.1359H417.822V31.7119ZM423.998 9.02391C419.838 9.02391 418.174 12.6079 418.206 16.3839C418.206 19.6479 420.03 22.6879 423.998 22.6879C427.614 22.6879 429.438 19.7119 429.438 15.8719C429.438 11.9999 427.614 9.02391 423.998 9.02391ZM433.129 19.6159C433.097 16.5439 435.945 14.6239 439.561 14.3999C440.105 14.3679 440.681 14.3359 441.257 14.3359C442.825 14.3359 444.361 14.4959 445.225 14.8799V13.7279C445.225 10.5279 443.657 9.47191 440.873 9.47191C438.505 9.47191 436.201 10.6559 434.761 12.3199L434.409 10.2079C436.009 8.73591 438.217 7.51991 440.873 7.51991C445.065 7.51991 447.785 9.37591 447.785 13.5039V23.7119H446.409L445.385 18.7839C444.105 22.3999 441.321 23.9999 438.249 23.9999C435.369 23.9999 433.225 22.5599 433.129 19.6159ZM439.465 15.5199C436.457 16.0639 435.465 17.9839 435.785 19.7439C436.041 21.1519 437.321 22.1759 439.273 22.1759C442.281 22.1759 444.265 19.9359 445.161 18.1439L445.193 15.8079C444.425 15.5199 442.985 15.3279 441.609 15.3279C440.841 15.3279 440.073 15.3919 439.465 15.5199ZM450.026 23.7119V7.99991H451.338L452.042 13.9199H452.33C452.938 8.54391 456.042 7.48791 458.442 7.48791C458.794 7.48791 459.146 7.48791 459.434 7.51991V10.0159C459.21 9.98391 458.826 9.95191 458.41 9.95191C456.298 9.95191 452.618 10.7519 452.618 15.2959V23.7119H450.026ZM460.708 7.99991H465.124L462.66 3.42391H466.404L466.084 7.99991H473.188V10.0799H466.116V18.5599C466.116 21.3439 467.556 22.2719 469.476 22.2719C470.628 22.2719 471.908 21.9199 473.188 21.4719V23.7119C471.812 23.9679 470.436 24.1599 469.22 24.1599C465.956 24.1599 463.556 22.8799 463.556 18.3679V10.0799H460.708V7.99991ZM474.366 7.99991H478.654V23.7119H476.094V10.5279H474.366V7.99991ZM474.782 3.93591C474.782 2.94391 475.582 2.14391 476.542 2.14391C477.534 2.14391 478.334 2.94391 478.334 3.93591C478.334 4.89591 477.534 5.69591 476.542 5.69591C475.582 5.69591 474.782 4.89591 474.782 3.93591ZM489.021 24.1919C483.453 24.1919 480.413 20.6399 480.413 15.8399C480.413 11.0719 483.453 7.51991 489.021 7.51991C493.501 7.51991 495.805 10.6559 496.285 12.4159H493.693C493.213 10.8479 491.645 9.34391 489.021 9.34391C486.141 9.34391 483.005 11.2319 483.005 15.8399C483.005 20.4799 486.237 22.3679 489.021 22.3679C491.645 22.3679 493.213 21.1519 493.693 19.2959H496.285C495.773 21.3119 493.501 24.1919 489.021 24.1919ZM497.256 7.99991H501.544V23.7119H498.984V10.5279H497.256V7.99991ZM497.672 3.93591C497.672 2.94391 498.472 2.14391 499.432 2.14391C500.424 2.14391 501.224 2.94391 501.224 3.93591C501.224 4.89591 500.424 5.69591 499.432 5.69591C498.472 5.69591 497.672 4.89591 497.672 3.93591ZM506.375 31.7119H503.783V7.99991H505.415L506.215 13.9199H506.503C507.047 10.2399 509.447 7.51991 512.775 7.51991C516.519 7.51991 520.551 9.56791 520.551 15.8719C520.551 22.1439 516.519 24.1919 512.775 24.1919C509.639 24.1919 507.463 22.2399 506.663 19.1359H506.375V31.7119ZM512.551 9.02391C508.391 9.02391 506.727 12.6079 506.759 16.3839C506.759 19.6479 508.583 22.6879 512.551 22.6879C516.167 22.6879 517.991 19.7119 517.991 15.8719C517.991 11.9999 516.167 9.02391 512.551 9.02391ZM521.682 19.6159C521.65 16.5439 524.498 14.6239 528.114 14.3999C528.658 14.3679 529.234 14.3359 529.81 14.3359C531.378 14.3359 532.914 14.4959 533.778 14.8799V13.7279C533.778 10.5279 532.21 9.47191 529.426 9.47191C527.058 9.47191 524.754 10.6559 523.314 12.3199L522.962 10.2079C524.562 8.73591 526.77 7.51991 529.426 7.51991C533.618 7.51991 536.338 9.37591 536.338 13.5039V23.7119H534.962L533.938 18.7839C532.658 22.3999 529.874 23.9999 526.802 23.9999C523.922 23.9999 521.778 22.5599 521.682 19.6159ZM528.018 15.5199C525.01 16.0639 524.018 17.9839 524.338 19.7439C524.594 21.1519 525.874 22.1759 527.826 22.1759C530.834 22.1759 532.818 19.9359 533.714 18.1439L533.746 15.8079C532.978 15.5199 531.538 15.3279 530.162 15.3279C529.394 15.3279 528.626 15.3919 528.018 15.5199ZM538.579 7.99991H539.955L540.627 13.5359C540.947 9.95191 543.539 7.51991 546.867 7.51991C550.227 7.51991 552.531 10.0159 552.531 13.0879V23.7119H549.971V12.7999C549.971 10.8479 548.499 8.99191 545.939 8.99191C543.283 8.99191 541.171 11.6159 541.171 15.0079V23.7119H538.579V7.99991ZM554.198 7.99991H558.614L556.15 3.42391H559.894L559.574 7.99991H566.678V10.0799H559.606V18.5599C559.606 21.3439 561.046 22.2719 562.966 22.2719C564.118 22.2719 565.398 21.9199 566.678 21.4719V23.7119C565.302 23.9679 563.926 24.1599 562.71 24.1599C559.446 24.1599 557.046 22.8799 557.046 18.3679V10.0799H554.198V7.99991ZM575.6 24.1919C570.736 24.1919 568.336 21.9519 568.336 19.1999H570.448C570.448 21.0879 572.176 22.3999 575.6 22.3999C578.512 22.3999 580.464 21.5999 580.464 19.2319C580.464 14.8799 568.336 19.0399 568.336 12.2879C568.336 8.99191 571.408 7.39191 575.856 7.39191C580.976 7.39191 582.704 9.63191 582.704 12.2879H580.784C580.784 10.0159 578.704 9.18391 575.856 9.18391C572.912 9.18391 570.576 9.88791 570.576 12.2879C570.576 16.6399 582.704 12.4479 582.704 19.1999C582.704 22.2079 580.56 24.2239 575.6 24.1919ZM590.783 7.99991H595.199L592.735 3.42391H596.479L596.159 7.99991H603.263V10.0799H596.191V18.5599C596.191 21.3439 597.631 22.2719 599.551 22.2719C600.703 22.2719 601.983 21.9199 603.263 21.4719V23.7119C601.887 23.9679 600.511 24.1599 599.295 24.1599C596.031 24.1599 593.631 22.8799 593.631 18.3679V10.0799H590.783V7.99991ZM604.761 15.8399C604.761 10.4639 608.729 7.51991 613.593 7.51991C618.489 7.51991 622.457 10.3679 622.457 15.8399C622.457 21.3439 618.361 24.1919 613.593 24.1919C608.825 24.1919 604.761 21.2159 604.761 15.8399ZM613.593 9.50391C610.393 9.50391 607.129 11.0399 607.129 15.8399C607.129 20.6399 610.553 22.2079 613.593 22.2079C616.633 22.2079 620.057 20.7359 620.057 15.8399C620.057 10.9759 616.825 9.50391 613.593 9.50391ZM9.08799 58.1919C4.12798 58.1919 0.0639844 55.2479 0.0639844 49.8399C0.0639844 44.6239 3.74398 41.5199 8.99198 41.5199C14.784 41.5199 17.76 45.2319 17.6 50.7359H2.71998C2.81598 54.6719 6.07998 56.3359 9.08799 56.3359C12.544 56.3359 14.048 54.8319 14.816 52.9439H17.408C16.192 55.7919 13.824 58.1919 9.08799 58.1919ZM8.99198 43.3119C4.73598 43.3439 2.75198 46.3519 2.68798 49.1999H14.912C14.848 46.7039 13.216 43.2799 8.99198 43.3119ZM17.715 41.9999H20.755L25.139 49.4559H26.227L30.611 41.9999H33.651L28.723 49.8399L33.651 57.7119H30.611L26.227 50.2559H25.139L20.755 57.7119H17.715L22.643 49.8399L17.715 41.9999ZM37.4947 65.7119H34.9027V41.9999H36.5347L37.3347 47.9199H37.6227C38.1667 44.2399 40.5667 41.5199 43.8947 41.5199C47.6387 41.5199 51.6707 43.5679 51.6707 49.8719C51.6707 56.1439 47.6387 58.1919 43.8947 58.1919C40.7587 58.1919 38.5827 56.2399 37.7827 53.1359H37.4947V65.7119ZM43.6707 43.0239C39.5107 43.0239 37.8467 46.6079 37.8787 50.3839C37.8787 53.6479 39.7027 56.6879 43.6707 56.6879C47.2867 56.6879 49.1107 53.7119 49.1107 49.8719C49.1107 45.9999 47.2867 43.0239 43.6707 43.0239ZM53.4415 57.7119V41.9999H54.7535L55.4575 47.9199H55.7455C56.3535 42.5439 59.4575 41.4879 61.8575 41.4879C62.2095 41.4879 62.5615 41.4879 62.8495 41.5199V44.0159C62.6255 43.9839 62.2415 43.9519 61.8255 43.9519C59.7135 43.9519 56.0335 44.7519 56.0335 49.2959V57.7119H53.4415ZM72.493 58.1919C67.533 58.1919 63.469 55.2479 63.469 49.8399C63.469 44.6239 67.149 41.5199 72.397 41.5199C78.189 41.5199 81.165 45.2319 81.005 50.7359H66.125C66.221 54.6719 69.485 56.3359 72.493 56.3359C75.949 56.3359 77.453 54.8319 78.221 52.9439H80.813C79.597 55.7919 77.229 58.1919 72.493 58.1919ZM72.397 43.3119C68.141 43.3439 66.157 46.3519 66.093 49.1999H78.317C78.253 46.7039 76.621 43.2799 72.397 43.3119ZM89.713 58.1919C84.849 58.1919 82.449 55.9519 82.449 53.1999H84.561C84.561 55.0879 86.289 56.3999 89.713 56.3999C92.625 56.3999 94.577 55.5999 94.577 53.2319C94.577 48.8799 82.449 53.0399 82.449 46.2879C82.449 42.9919 85.521 41.3919 89.969 41.3919C95.089 41.3919 96.817 43.6319 96.817 46.2879H94.897C94.897 44.0159 92.817 43.1839 89.969 43.1839C87.025 43.1839 84.689 43.8879 84.689 46.2879C84.689 50.6399 96.817 46.4479 96.817 53.1999C96.817 56.2079 94.673 58.2239 89.713 58.1919ZM105.689 58.1919C100.825 58.1919 98.4252 55.9519 98.4252 53.1999H100.537C100.537 55.0879 102.265 56.3999 105.689 56.3999C108.601 56.3999 110.553 55.5999 110.553 53.2319C110.553 48.8799 98.4252 53.0399 98.4252 46.2879C98.4252 42.9919 101.497 41.3919 105.945 41.3919C111.065 41.3919 112.793 43.6319 112.793 46.2879H110.873C110.873 44.0159 108.793 43.1839 105.945 43.1839C103.001 43.1839 100.665 43.8879 100.665 46.2879C100.665 50.6399 112.793 46.4479 112.793 53.1999C112.793 56.2079 110.649 58.2239 105.689 58.1919ZM120.648 41.9999H124.936V57.7119H122.376V44.5279H120.648V41.9999ZM121.064 37.9359C121.064 36.9439 121.864 36.1439 122.824 36.1439C123.816 36.1439 124.616 36.9439 124.616 37.9359C124.616 38.8959 123.816 39.6959 122.824 39.6959C121.864 39.6959 121.064 38.8959 121.064 37.9359ZM134.47 58.1919C130.726 58.1919 126.694 56.1439 126.694 49.8399C126.694 43.5679 130.726 41.5199 134.47 41.5199C137.606 41.5199 139.782 43.4719 140.582 46.5759H140.902V33.9999H143.462V57.7119H141.862L141.062 51.7919H140.742C140.198 55.4719 137.798 58.1919 134.47 58.1919ZM134.694 43.0239C131.078 43.0239 129.286 45.9999 129.286 49.8399C129.286 53.7119 131.078 56.6879 134.694 56.6879C138.886 56.6879 140.518 53.1039 140.518 49.3279C140.518 46.0639 138.662 43.0239 134.694 43.0239ZM154.257 58.1919C149.297 58.1919 145.233 55.2479 145.233 49.8399C145.233 44.6239 148.913 41.5199 154.161 41.5199C159.953 41.5199 162.929 45.2319 162.769 50.7359H147.889C147.985 54.6719 151.249 56.3359 154.257 56.3359C157.713 56.3359 159.217 54.8319 159.985 52.9439H162.577C161.361 55.7919 158.993 58.1919 154.257 58.1919ZM154.161 43.3119C149.905 43.3439 147.921 46.3519 147.857 49.1999H160.081C160.017 46.7039 158.385 43.2799 154.161 43.3119ZM163.893 53.6159C163.861 50.5439 166.709 48.6239 170.325 48.3999C170.869 48.3679 171.445 48.3359 172.021 48.3359C173.589 48.3359 175.125 48.4959 175.989 48.8799V47.7279C175.989 44.5279 174.421 43.4719 171.637 43.4719C169.269 43.4719 166.965 44.6559 165.525 46.3199L165.173 44.2079C166.773 42.7359 168.981 41.5199 171.637 41.5199C175.829 41.5199 178.549 43.3759 178.549 47.5039V57.7119H177.173L176.149 52.7839C174.869 56.3999 172.085 57.9999 169.013 57.9999C166.133 57.9999 163.989 56.5599 163.893 53.6159ZM170.229 49.5199C167.221 50.0639 166.229 51.9839 166.549 53.7439C166.805 55.1519 168.085 56.1759 170.037 56.1759C173.045 56.1759 175.029 53.9359 175.925 52.1439L175.957 49.8079C175.189 49.5199 173.749 49.3279 172.373 49.3279C171.605 49.3279 170.837 49.3919 170.229 49.5199ZM187.734 58.1919C182.87 58.1919 180.47 55.9519 180.47 53.1999H182.582C182.582 55.0879 184.31 56.3999 187.734 56.3999C190.646 56.3999 192.598 55.5999 192.598 53.2319C192.598 48.8799 180.47 53.0399 180.47 46.2879C180.47 42.9919 183.542 41.3919 187.99 41.3919C193.11 41.3919 194.838 43.6319 194.838 46.2879H192.918C192.918 44.0159 190.838 43.1839 187.99 43.1839C185.046 43.1839 182.71 43.8879 182.71 46.2879C182.71 50.6399 194.838 46.4479 194.838 53.1999C194.838 56.2079 192.694 58.2239 187.734 58.1919ZM202.917 41.9999H207.333L204.869 37.4239H208.613L208.293 41.9999H215.397V44.0799H208.325V52.5599C208.325 55.3439 209.765 56.2719 211.685 56.2719C212.837 56.2719 214.117 55.9199 215.397 55.4719V57.7119C214.021 57.9679 212.645 58.1599 211.429 58.1599C208.165 58.1599 205.765 56.8799 205.765 52.3679V44.0799H202.917V41.9999ZM217.375 33.9999H219.999V46.5119C220.031 44.2399 222.655 41.5199 225.663 41.5199C229.471 41.5199 231.327 44.0159 231.327 47.0879V57.7119H228.767V46.7999C228.767 44.9439 227.647 43.0559 225.215 43.0559C222.079 43.0559 219.967 46.3199 219.967 49.1999V57.7119H217.375V33.9999ZM233.57 57.7119V41.9999H234.882L235.586 47.9199H235.874C236.482 42.5439 239.586 41.4879 241.986 41.4879C242.338 41.4879 242.69 41.4879 242.978 41.5199V44.0159C242.754 43.9839 242.37 43.9519 241.954 43.9519C239.842 43.9519 236.162 44.7519 236.162 49.2959V57.7119H233.57ZM242.723 49.8399C242.723 44.4639 246.691 41.5199 251.555 41.5199C256.451 41.5199 260.419 44.3679 260.419 49.8399C260.419 55.3439 256.323 58.1919 251.555 58.1919C246.787 58.1919 242.723 55.2159 242.723 49.8399ZM251.555 43.5039C248.355 43.5039 245.091 45.0399 245.091 49.8399C245.091 54.6399 248.515 56.2079 251.555 56.2079C254.595 56.2079 258.019 54.7359 258.019 49.8399C258.019 44.9759 254.787 43.5039 251.555 43.5039ZM267.843 58.1919C264.483 58.1919 262.179 55.6959 262.179 52.6239V41.9999H264.739V52.9119C264.739 55.0879 266.211 56.7199 268.771 56.7199C271.427 56.7199 273.539 54.0959 273.539 50.7039V41.9999H276.131V57.7119H274.755L274.083 52.0479H273.795C273.635 55.5999 271.139 58.1919 267.843 58.1919ZM285.414 58.1919C281.478 58.1919 277.894 56.2399 277.894 49.8719C277.894 43.4719 281.478 41.5199 285.414 41.5199C288.742 41.5199 291.142 44.2399 291.686 47.9199H292.006L292.742 41.9679H294.342V55.6959C294.342 60.3359 291.814 64.2719 286.662 64.2719C284.038 64.2719 280.838 63.0239 280.838 59.9199H281.318C281.318 61.1999 282.502 63.0559 286.054 63.0559C289.286 63.0559 291.654 60.8159 291.75 55.6639V53.1359H291.43C290.63 56.2399 288.486 58.1919 285.414 58.1919ZM280.486 49.8719C280.486 54.1919 282.534 56.7519 285.67 56.7519C289.478 56.7519 291.398 53.6159 291.398 50.3839C291.398 46.9279 290.054 42.9599 285.67 42.9599C282.534 42.9599 280.486 45.5199 280.486 49.8719ZM296.569 33.9999H299.193V46.5119C299.225 44.2399 301.849 41.5199 304.857 41.5199C308.665 41.5199 310.521 44.0159 310.521 47.0879V57.7119H307.961V46.7999C307.961 44.9439 306.841 43.0559 304.409 43.0559C301.273 43.0559 299.161 46.3199 299.161 49.1999V57.7119H296.569V33.9999ZM326.434 58.1919C321.57 58.1919 319.17 55.9519 319.17 53.1999H321.282C321.282 55.0879 323.01 56.3999 326.434 56.3999C329.346 56.3999 331.298 55.5999 331.298 53.2319C331.298 48.8799 319.17 53.0399 319.17 46.2879C319.17 42.9919 322.242 41.3919 326.69 41.3919C331.81 41.3919 333.538 43.6319 333.538 46.2879H331.618C331.618 44.0159 329.538 43.1839 326.69 43.1839C323.746 43.1839 321.41 43.8879 321.41 46.2879C321.41 50.6399 333.538 46.4479 333.538 53.1999C333.538 56.2079 331.394 58.2239 326.434 58.1919ZM335.466 33.9999H338.09V46.5119C338.122 44.2399 340.746 41.5199 343.754 41.5199C347.562 41.5199 349.418 44.0159 349.418 47.0879V57.7119H346.858V46.7999C346.858 44.9439 345.738 43.0559 343.306 43.0559C340.17 43.0559 338.058 46.3199 338.058 49.1999V57.7119H335.466V33.9999ZM351.181 49.8399C351.181 44.4639 355.149 41.5199 360.013 41.5199C364.909 41.5199 368.877 44.3679 368.877 49.8399C368.877 55.3439 364.781 58.1919 360.013 58.1919C355.245 58.1919 351.181 55.2159 351.181 49.8399ZM360.013 43.5039C356.813 43.5039 353.549 45.0399 353.549 49.8399C353.549 54.6399 356.973 56.2079 360.013 56.2079C363.053 56.2079 366.477 54.7359 366.477 49.8399C366.477 44.9759 363.245 43.5039 360.013 43.5039ZM370.638 57.7119V41.9999H371.95L372.654 47.9199H372.942C373.55 42.5439 376.654 41.4879 379.054 41.4879C379.406 41.4879 379.758 41.4879 380.046 41.5199V44.0159C379.822 43.9839 379.438 43.9519 379.022 43.9519C376.91 43.9519 373.23 44.7519 373.23 49.2959V57.7119H370.638ZM381.319 41.9999H385.735L383.271 37.4239H387.015L386.695 41.9999H393.799V44.0799H386.727V52.5599C386.727 55.3439 388.167 56.2719 390.087 56.2719C391.239 56.2719 392.519 55.9199 393.799 55.4719V57.7119C392.423 57.9679 391.047 58.1599 389.831 58.1599C386.567 58.1599 384.167 56.8799 384.167 52.3679V44.0799H381.319V41.9999ZM402.088 41.9999H405.8C405.8 41.9999 405 40.7519 404.808 39.0239C404.36 35.2159 406.824 33.6479 410.184 33.6479C411.464 33.6479 413.448 33.9679 414.344 35.0239V37.0079C413.352 36.1759 412.328 35.7599 410.888 35.7599C410.824 35.7599 410.76 35.7599 410.728 35.7599C406.056 35.8559 407.624 41.9999 407.624 41.9999H413.416V44.0799H407.528V57.6799L404.936 57.7119V44.0799H402.088V41.9999ZM415.118 41.9999H419.406V57.7119H416.846V44.5279H415.118V41.9999ZM415.534 37.9359C415.534 36.9439 416.334 36.1439 417.294 36.1439C418.286 36.1439 419.086 36.9439 419.086 37.9359C419.086 38.8959 418.286 39.6959 417.294 39.6959C416.334 39.6959 415.534 38.8959 415.534 37.9359ZM421.644 57.7119V33.9999H424.236V57.7119H421.644ZM426.464 57.7119V41.9999H427.84L428.704 47.5039C428.768 43.9839 431.392 41.5199 434.592 41.5199C437.472 41.5199 438.656 43.5679 439.264 45.9679H439.584C440.256 43.2799 442.72 41.5199 445.6 41.5199C448.672 41.5199 451.168 43.7599 451.168 47.0879V57.7119H448.608V46.7999C448.608 44.8479 447.296 42.9919 444.736 42.9919C442.048 42.9919 440.096 44.6879 440.096 46.9919V57.7119H437.536V46.9919C437.536 45.0719 436.224 42.9919 433.728 42.9919C431.616 42.9919 429.056 44.9439 429.056 49.2319V57.7119H426.464ZM460.353 58.1919C455.489 58.1919 453.089 55.9519 453.089 53.1999H455.201C455.201 55.0879 456.929 56.3999 460.353 56.3999C463.265 56.3999 465.217 55.5999 465.217 53.2319C465.217 48.8799 453.089 53.0399 453.089 46.2879C453.089 42.9919 456.161 41.3919 460.609 41.3919C465.729 41.3919 467.457 43.6319 467.457 46.2879H465.537C465.537 44.0159 463.457 43.1839 460.609 43.1839C457.665 43.1839 455.329 43.8879 455.329 46.2879C455.329 50.6399 467.457 46.4479 467.457 53.1999C467.457 56.2079 465.313 58.2239 460.353 58.1919ZM475.631 49.8399C475.631 44.4639 479.599 41.5199 484.463 41.5199C489.359 41.5199 493.327 44.3679 493.327 49.8399C493.327 55.3439 489.231 58.1919 484.463 58.1919C479.695 58.1919 475.631 55.2159 475.631 49.8399ZM484.463 43.5039C481.263 43.5039 477.999 45.0399 477.999 49.8399C477.999 54.6399 481.423 56.2079 484.463 56.2079C487.503 56.2079 490.927 54.7359 490.927 49.8399C490.927 44.9759 487.695 43.5039 484.463 43.5039ZM495.088 57.7119V41.9999H496.4L497.104 47.9199H497.392C498 42.5439 501.104 41.4879 503.504 41.4879C503.856 41.4879 504.208 41.4879 504.496 41.5199V44.0159C504.272 43.9839 503.888 43.9519 503.472 43.9519C501.36 43.9519 497.68 44.7519 497.68 49.2959V57.7119H495.088ZM513.072 57.7119V41.9999H514.384L515.088 47.9199H515.376C515.984 42.5439 519.088 41.4879 521.488 41.4879C521.84 41.4879 522.192 41.4879 522.48 41.5199V44.0159C522.256 43.9839 521.872 43.9519 521.456 43.9519C519.344 43.9519 515.664 44.7519 515.664 49.2959V57.7119H513.072ZM532.123 58.1919C527.163 58.1919 523.099 55.2479 523.099 49.8399C523.099 44.6239 526.779 41.5199 532.027 41.5199C537.819 41.5199 540.795 45.2319 540.635 50.7359H525.755C525.851 54.6719 529.115 56.3359 532.123 56.3359C535.579 56.3359 537.083 54.8319 537.851 52.9439H540.443C539.227 55.7919 536.859 58.1919 532.123 58.1919ZM532.027 43.3119C527.771 43.3439 525.787 46.3519 525.723 49.1999H537.947C537.883 46.7039 536.251 43.2799 532.027 43.3119ZM550.693 58.1919C545.733 58.1919 541.669 55.2479 541.669 49.8399C541.669 44.6239 545.349 41.5199 550.597 41.5199C556.389 41.5199 559.365 45.2319 559.205 50.7359H544.325C544.421 54.6719 547.685 56.3359 550.693 56.3359C554.149 56.3359 555.653 54.8319 556.421 52.9439H559.013C557.797 55.7919 555.429 58.1919 550.693 58.1919ZM550.597 43.3119C546.341 43.3439 544.357 46.3519 544.293 49.1999H556.517C556.453 46.7039 554.821 43.2799 550.597 43.3119ZM560.969 57.7119V33.9999H563.561V57.7119H560.969ZM572.733 58.1919C567.869 58.1919 565.469 55.9519 565.469 53.1999H567.581C567.581 55.0879 569.309 56.3999 572.733 56.3999C575.645 56.3999 577.597 55.5999 577.597 53.2319C577.597 48.8799 565.469 53.0399 565.469 46.2879C565.469 42.9919 568.541 41.3919 572.989 41.3919C578.109 41.3919 579.837 43.6319 579.837 46.2879H577.917C577.917 44.0159 575.837 43.1839 572.989 43.1839C570.045 43.1839 567.709 43.8879 567.709 46.2879C567.709 50.6399 579.837 46.4479 579.837 53.1999C579.837 56.2079 577.693 58.2239 572.733 58.1919ZM6.20798 92.1919C2.84798 92.1919 0.543984 89.6959 0.543984 86.6239V75.9999H3.10398V86.9119C3.10398 89.0879 4.57598 90.7199 7.13598 90.7199C9.79198 90.7199 11.904 88.0959 11.904 84.7039V75.9999H14.496V91.7119H13.12L12.448 86.0479H12.16C12 89.5999 9.50398 92.1919 6.20798 92.1919ZM23.683 92.1919C18.819 92.1919 16.419 89.9519 16.419 87.1999H18.531C18.531 89.0879 20.259 90.3999 23.683 90.3999C26.595 90.3999 28.547 89.5999 28.547 87.2319C28.547 82.8799 16.419 87.0399 16.419 80.2879C16.419 76.9919 19.491 75.3919 23.939 75.3919C29.059 75.3919 30.787 77.6319 30.787 80.2879H28.867C28.867 78.0159 26.787 77.1839 23.939 77.1839C20.995 77.1839 18.659 77.8879 18.659 80.2879C18.659 84.6399 30.787 80.4479 30.787 87.1999C30.787 90.2079 28.643 92.2239 23.683 92.1919ZM31.9152 75.9999H36.2032V91.7119H33.6432V78.5279H31.9152V75.9999ZM32.3312 71.9359C32.3312 70.9439 33.1312 70.1439 34.0912 70.1439C35.0832 70.1439 35.8832 70.9439 35.8832 71.9359C35.8832 72.8959 35.0832 73.6959 34.0912 73.6959C33.1312 73.6959 32.3312 72.8959 32.3312 71.9359ZM38.4415 75.9999H39.8175L40.4895 81.5359C40.8095 77.9519 43.4015 75.5199 46.7295 75.5199C50.0895 75.5199 52.3935 78.0159 52.3935 81.0879V91.7119H49.8335V80.7999C49.8335 78.8479 48.3615 76.9919 45.8015 76.9919C43.1455 76.9919 41.0335 79.6159 41.0335 83.0079V91.7119H38.4415V75.9999ZM61.6765 92.1919C57.7405 92.1919 54.1565 90.2399 54.1565 83.8719C54.1565 77.4719 57.7405 75.5199 61.6765 75.5199C65.0045 75.5199 67.4045 78.2399 67.9485 81.9199H68.2685L69.0045 75.9679H70.6045V89.6959C70.6045 94.3359 68.0765 98.2719 62.9245 98.2719C60.3005 98.2719 57.1005 97.0239 57.1005 93.9199H57.5805C57.5805 95.1999 58.7645 97.0559 62.3165 97.0559C65.5485 97.0559 67.9165 94.8159 68.0125 89.6639V87.1359H67.6925C66.8925 90.2399 64.7485 92.1919 61.6765 92.1919ZM56.7485 83.8719C56.7485 88.1919 58.7965 90.7519 61.9325 90.7519C65.7405 90.7519 67.6605 87.6159 67.6605 84.3839C67.6605 80.9279 66.3165 76.9599 61.9325 76.9599C58.7965 76.9599 56.7485 79.5199 56.7485 83.8719ZM86.5017 92.1919C81.6377 92.1919 79.2377 89.9519 79.2377 87.1999H81.3497C81.3497 89.0879 83.0777 90.3999 86.5017 90.3999C89.4137 90.3999 91.3657 89.5999 91.3657 87.2319C91.3657 82.8799 79.2377 87.0399 79.2377 80.2879C79.2377 76.9919 82.3097 75.3919 86.7577 75.3919C91.8777 75.3919 93.6057 77.6319 93.6057 80.2879H91.6857C91.6857 78.0159 89.6057 77.1839 86.7577 77.1839C83.8137 77.1839 81.4777 77.8879 81.4777 80.2879C81.4777 84.6399 93.6057 80.4479 93.6057 87.1999C93.6057 90.2079 91.4617 92.2239 86.5017 92.1919ZM94.958 75.9999H99.374L96.91 71.4239H100.654L100.334 75.9999H107.438V78.0799H100.366V86.5599C100.366 89.3439 101.806 90.2719 103.726 90.2719C104.878 90.2719 106.158 89.9199 107.438 89.4719V91.7119C106.062 91.9679 104.686 92.1599 103.47 92.1599C100.206 92.1599 97.806 90.8799 97.806 86.3679V78.0799H94.958V75.9999ZM108.936 83.8399C108.936 78.4639 112.904 75.5199 117.768 75.5199C122.664 75.5199 126.632 78.3679 126.632 83.8399C126.632 89.3439 122.536 92.1919 117.768 92.1919C113 92.1919 108.936 89.2159 108.936 83.8399ZM117.768 77.5039C114.568 77.5039 111.304 79.0399 111.304 83.8399C111.304 88.6399 114.728 90.2079 117.768 90.2079C120.808 90.2079 124.232 88.7359 124.232 83.8399C124.232 78.9759 121 77.5039 117.768 77.5039ZM128.393 91.7119V75.9999H129.705L130.409 81.9199H130.697C131.305 76.5439 134.409 75.4879 136.809 75.4879C137.161 75.4879 137.513 75.4879 137.801 75.5199V78.0159C137.577 77.9839 137.193 77.9519 136.777 77.9519C134.665 77.9519 130.985 78.7519 130.985 83.2959V91.7119H128.393ZM142.722 98.0159C140.098 97.7919 137.762 95.7119 137.378 93.3119H137.954C138.658 94.9439 140.354 96.4799 142.498 96.4799C145.154 96.4799 146.722 93.8879 147.65 91.7119H144.322L138.594 75.9999H141.218L146.562 90.6879H148.002L153.41 75.9999H156.002L150.306 91.5839C149.026 95.1039 146.69 98.0159 142.722 98.0159ZM156.675 75.9999H161.091L158.627 71.4239H162.371L162.051 75.9999H169.155V78.0799H162.083V86.5599C162.083 89.3439 163.523 90.2719 165.443 90.2719C166.595 90.2719 167.875 89.9199 169.155 89.4719V91.7119C167.779 91.9679 166.403 92.1599 165.187 92.1599C161.923 92.1599 159.523 90.8799 159.523 86.3679V78.0799H156.675V75.9999ZM179.678 92.1919C174.718 92.1919 170.654 89.2479 170.654 83.8399C170.654 78.6239 174.334 75.5199 179.582 75.5199C185.374 75.5199 188.35 79.2319 188.19 84.7359H173.31C173.406 88.6719 176.67 90.3359 179.678 90.3359C183.134 90.3359 184.638 88.8319 185.406 86.9439H187.998C186.782 89.7919 184.414 92.1919 179.678 92.1919ZM179.582 77.3119C175.326 77.3439 173.342 80.3519 173.278 83.1999H185.502C185.438 80.7039 183.806 77.2799 179.582 77.3119ZM189.954 91.7119V67.9999H192.546V91.7119H189.954ZM194.774 91.7119V67.9999H197.366V91.7119H194.774ZM198.794 75.9999H203.082V91.7119H200.522V78.5279H198.794V75.9999ZM199.21 71.9359C199.21 70.9439 200.01 70.1439 200.97 70.1439C201.962 70.1439 202.762 70.9439 202.762 71.9359C202.762 72.8959 201.962 73.6959 200.97 73.6959C200.01 73.6959 199.21 72.8959 199.21 71.9359ZM205.32 75.9999H206.696L207.368 81.5359C207.688 77.9519 210.28 75.5199 213.608 75.5199C216.968 75.5199 219.272 78.0159 219.272 81.0879V91.7119H216.712V80.7999C216.712 78.8479 215.24 76.9919 212.68 76.9919C210.024 76.9919 207.912 79.6159 207.912 83.0079V91.7119H205.32V75.9999ZM228.555 92.1919C224.619 92.1919 221.035 90.2399 221.035 83.8719C221.035 77.4719 224.619 75.5199 228.555 75.5199C231.883 75.5199 234.283 78.2399 234.827 81.9199H235.147L235.883 75.9679H237.483V89.6959C237.483 94.3359 234.955 98.2719 229.803 98.2719C227.179 98.2719 223.979 97.0239 223.979 93.9199H224.459C224.459 95.1999 225.643 97.0559 229.195 97.0559C232.427 97.0559 234.795 94.8159 234.891 89.6639V87.1359H234.571C233.771 90.2399 231.627 92.1919 228.555 92.1919ZM223.627 83.8719C223.627 88.1919 225.675 90.7519 228.811 90.7519C232.619 90.7519 234.539 87.6159 234.539 84.3839C234.539 80.9279 233.195 76.9599 228.811 76.9599C225.675 76.9599 223.627 79.5199 223.627 83.8719ZM243.358 92.1599C242.334 92.1599 241.47 91.2959 241.47 90.2719C241.47 89.2479 242.334 88.3839 243.358 88.3839C244.414 88.3839 245.246 89.2479 245.246 90.2719C245.246 91.6479 243.902 92.9279 243.102 93.4079H241.95C242.59 92.9599 242.942 92.6719 243.358 92.1599ZM263.447 92.1919C257.879 92.1919 254.839 88.6399 254.839 83.8399C254.839 79.0719 257.879 75.5199 263.447 75.5199C267.927 75.5199 270.231 78.6559 270.711 80.4159H268.119C267.639 78.8479 266.071 77.3439 263.447 77.3439C260.567 77.3439 257.431 79.2319 257.431 83.8399C257.431 88.4799 260.663 90.3679 263.447 90.3679C266.071 90.3679 267.639 89.1519 268.119 87.2959H270.711C270.199 89.3119 267.927 92.1919 263.447 92.1919ZM272.483 91.7119V75.9999H273.795L274.499 81.9199H274.787C275.395 76.5439 278.499 75.4879 280.899 75.4879C281.251 75.4879 281.603 75.4879 281.891 75.5199V78.0159C281.667 77.9839 281.283 77.9519 280.867 77.9519C278.755 77.9519 275.075 78.7519 275.075 83.2959V91.7119H272.483ZM291.534 92.1919C286.574 92.1919 282.51 89.2479 282.51 83.8399C282.51 78.6239 286.19 75.5199 291.438 75.5199C297.23 75.5199 300.206 79.2319 300.046 84.7359H285.166C285.262 88.6719 288.526 90.3359 291.534 90.3359C294.99 90.3359 296.494 88.8319 297.262 86.9439H299.854C298.638 89.7919 296.27 92.1919 291.534 92.1919ZM291.438 77.3119C287.182 77.3439 285.198 80.3519 285.134 83.1999H297.358C297.294 80.7039 295.662 77.2799 291.438 77.3119ZM301.17 87.6159C301.138 84.5439 303.986 82.6239 307.602 82.3999C308.146 82.3679 308.722 82.3359 309.298 82.3359C310.866 82.3359 312.402 82.4959 313.266 82.8799V81.7279C313.266 78.5279 311.698 77.4719 308.914 77.4719C306.546 77.4719 304.242 78.6559 302.802 80.3199L302.45 78.2079C304.05 76.7359 306.258 75.5199 308.914 75.5199C313.106 75.5199 315.826 77.3759 315.826 81.5039V91.7119H314.45L313.426 86.7839C312.146 90.3999 309.362 91.9999 306.29 91.9999C303.41 91.9999 301.266 90.5599 301.17 87.6159ZM307.506 83.5199C304.498 84.0639 303.506 85.9839 303.826 87.7439C304.082 89.1519 305.362 90.1759 307.314 90.1759C310.322 90.1759 312.306 87.9359 313.202 86.1439L313.234 83.8079C312.466 83.5199 311.026 83.3279 309.65 83.3279C308.882 83.3279 308.114 83.3919 307.506 83.5199ZM317.492 75.9999H321.908L319.444 71.4239H323.188L322.868 75.9999H329.972V78.0799H322.9V86.5599C322.9 89.3439 324.34 90.2719 326.26 90.2719C327.412 90.2719 328.692 89.9199 329.972 89.4719V91.7119C328.596 91.9679 327.22 92.1599 326.004 92.1599C322.74 92.1599 320.34 90.8799 320.34 86.3679V78.0799H317.492V75.9999ZM331.15 75.9999H335.438V91.7119H332.878V78.5279H331.15V75.9999ZM331.566 71.9359C331.566 70.9439 332.366 70.1439 333.326 70.1439C334.318 70.1439 335.118 70.9439 335.118 71.9359C335.118 72.8959 334.318 73.6959 333.326 73.6959C332.366 73.6959 331.566 72.8959 331.566 71.9359ZM336.652 75.9999H339.308L344.716 91.2319H346.188L351.596 75.9999H354.22L348.492 91.7119H342.412L336.652 75.9999ZM354.665 75.9999H358.953V91.7119H356.393V78.5279H354.665V75.9999ZM355.081 71.9359C355.081 70.9439 355.881 70.1439 356.841 70.1439C357.833 70.1439 358.633 70.9439 358.633 71.9359C358.633 72.8959 357.833 73.6959 356.841 73.6959C355.881 73.6959 355.081 72.8959 355.081 71.9359ZM360.615 75.9999H365.031L362.567 71.4239H366.311L365.991 75.9999H373.095V78.0799H366.023V86.5599C366.023 89.3439 367.463 90.2719 369.383 90.2719C370.535 90.2719 371.815 89.9199 373.095 89.4719V91.7119C371.719 91.9679 370.343 92.1599 369.127 92.1599C365.863 92.1599 363.463 90.8799 363.463 86.3679V78.0799H360.615V75.9999ZM378.146 98.0159C375.522 97.7919 373.186 95.7119 372.802 93.3119H373.378C374.082 94.9439 375.778 96.4799 377.922 96.4799C380.578 96.4799 382.146 93.8879 383.074 91.7119H379.746L374.018 75.9999H376.642L381.986 90.6879H383.426L388.834 75.9999H391.426L385.73 91.5839C384.45 95.1039 382.114 98.0159 378.146 98.0159ZM396.323 92.1599C395.299 92.1599 394.435 91.2959 394.435 90.2719C394.435 89.2479 395.299 88.3839 396.323 88.3839C397.379 88.3839 398.211 89.2479 398.211 90.2719C398.211 91.6479 396.867 92.9279 396.067 93.4079H394.915C395.555 92.9599 395.907 92.6719 396.323 92.1599ZM407.644 87.6159C407.612 84.5439 410.46 82.6239 414.076 82.3999C414.62 82.3679 415.196 82.3359 415.772 82.3359C417.34 82.3359 418.876 82.4959 419.74 82.8799V81.7279C419.74 78.5279 418.172 77.4719 415.388 77.4719C413.02 77.4719 410.716 78.6559 409.276 80.3199L408.924 78.2079C410.524 76.7359 412.732 75.5199 415.388 75.5199C419.58 75.5199 422.3 77.3759 422.3 81.5039V91.7119H420.924L419.9 86.7839C418.62 90.3999 415.836 91.9999 412.764 91.9999C409.884 91.9999 407.74 90.5599 407.644 87.6159ZM413.98 83.5199C410.972 84.0639 409.98 85.9839 410.3 87.7439C410.556 89.1519 411.836 90.1759 413.788 90.1759C416.796 90.1759 418.78 87.9359 419.676 86.1439L419.708 83.8079C418.94 83.5199 417.5 83.3279 416.124 83.3279C415.356 83.3279 414.588 83.3919 413.98 83.5199ZM424.541 75.9999H425.917L426.589 81.5359C426.909 77.9519 429.501 75.5199 432.829 75.5199C436.189 75.5199 438.493 78.0159 438.493 81.0879V91.7119H435.933V80.7999C435.933 78.8479 434.461 76.9919 431.901 76.9919C429.245 76.9919 427.133 79.6159 427.133 83.0079V91.7119H424.541V75.9999ZM448.032 92.1919C444.288 92.1919 440.256 90.1439 440.256 83.8399C440.256 77.5679 444.288 75.5199 448.032 75.5199C451.168 75.5199 453.344 77.4719 454.144 80.5759H454.464V67.9999H457.024V91.7119H455.424L454.624 85.7919H454.304C453.76 89.4719 451.36 92.1919 448.032 92.1919ZM448.256 77.0239C444.64 77.0239 442.848 79.9999 442.848 83.8399C442.848 87.7119 444.64 90.6879 448.256 90.6879C452.448 90.6879 454.08 87.1039 454.08 83.3279C454.08 80.0639 452.224 77.0239 448.256 77.0239ZM474.545 92.1919C469.585 92.1919 465.521 89.2479 465.521 83.8399C465.521 78.6239 469.201 75.5199 474.449 75.5199C480.241 75.5199 483.217 79.2319 483.057 84.7359H468.177C468.273 88.6719 471.537 90.3359 474.545 90.3359C478.001 90.3359 479.505 88.8319 480.273 86.9439H482.865C481.649 89.7919 479.281 92.1919 474.545 92.1919ZM474.449 77.3119C470.193 77.3439 468.209 80.3519 468.145 83.1999H480.369C480.305 80.7039 478.673 77.2799 474.449 77.3119ZM491.867 92.1919C488.123 92.1919 484.091 90.1439 484.091 83.8399C484.091 77.5679 488.123 75.5199 491.867 75.5199C495.003 75.5199 497.179 77.4719 497.979 80.5759H498.299V67.9999H500.859V91.7119H499.259L498.459 85.7919H498.139C497.595 89.4719 495.195 92.1919 491.867 92.1919ZM492.091 77.0239C488.475 77.0239 486.683 79.9999 486.683 83.8399C486.683 87.7119 488.475 90.6879 492.091 90.6879C496.283 90.6879 497.915 87.1039 497.915 83.3279C497.915 80.0639 496.059 77.0239 492.091 77.0239ZM502.31 75.9999H506.598V91.7119H504.038V78.5279H502.31V75.9999ZM502.726 71.9359C502.726 70.9439 503.526 70.1439 504.486 70.1439C505.478 70.1439 506.278 70.9439 506.278 71.9359C506.278 72.8959 505.478 73.6959 504.486 73.6959C503.526 73.6959 502.726 72.8959 502.726 71.9359ZM508.26 75.9999H512.676L510.212 71.4239H513.956L513.636 75.9999H520.74V78.0799H513.668V86.5599C513.668 89.3439 515.108 90.2719 517.028 90.2719C518.18 90.2719 519.46 89.9199 520.74 89.4719V91.7119C519.364 91.9679 517.988 92.1599 516.772 92.1599C513.508 92.1599 511.108 90.8799 511.108 86.3679V78.0799H508.26V75.9999ZM521.919 75.9999H526.207V91.7119H523.647V78.5279H521.919V75.9999ZM522.335 71.9359C522.335 70.9439 523.135 70.1439 524.095 70.1439C525.087 70.1439 525.887 70.9439 525.887 71.9359C525.887 72.8959 525.087 73.6959 524.095 73.6959C523.135 73.6959 522.335 72.8959 522.335 71.9359ZM528.445 75.9999H529.821L530.493 81.5359C530.813 77.9519 533.405 75.5199 536.733 75.5199C540.093 75.5199 542.397 78.0159 542.397 81.0879V91.7119H539.837V80.7999C539.837 78.8479 538.365 76.9919 535.805 76.9919C533.149 76.9919 531.037 79.6159 531.037 83.0079V91.7119H528.445V75.9999ZM551.68 92.1919C547.744 92.1919 544.16 90.2399 544.16 83.8719C544.16 77.4719 547.744 75.5199 551.68 75.5199C555.008 75.5199 557.408 78.2399 557.952 81.9199H558.272L559.008 75.9679H560.608V89.6959C560.608 94.3359 558.08 98.2719 552.928 98.2719C550.304 98.2719 547.104 97.0239 547.104 93.9199H547.584C547.584 95.1999 548.768 97.0559 552.32 97.0559C555.552 97.0559 557.92 94.8159 558.016 89.6639V87.1359H557.696C556.896 90.2399 554.752 92.1919 551.68 92.1919ZM546.752 83.8719C546.752 88.1919 548.8 90.7519 551.936 90.7519C555.744 90.7519 557.664 87.6159 557.664 84.3839C557.664 80.9279 556.32 76.9599 551.936 76.9599C548.8 76.9599 546.752 79.5199 546.752 83.8719ZM576.506 92.1919C571.642 92.1919 569.242 89.9519 569.242 87.1999H571.354C571.354 89.0879 573.082 90.3999 576.506 90.3999C579.418 90.3999 581.37 89.5999 581.37 87.2319C581.37 82.8799 569.242 87.0399 569.242 80.2879C569.242 76.9919 572.314 75.3919 576.762 75.3919C581.882 75.3919 583.61 77.6319 583.61 80.2879H581.69C581.69 78.0159 579.61 77.1839 576.762 77.1839C573.818 77.1839 571.482 77.8879 571.482 80.2879C571.482 84.6399 583.61 80.4479 583.61 87.1999C583.61 90.2079 581.466 92.2239 576.506 92.1919ZM599.682 91.6479L596.61 91.7119L588.77 83.8399L596.61 75.9679L599.682 75.9999L591.874 83.8399L599.682 91.6479ZM588.13 67.9999V91.7119H585.538V67.9999H588.13ZM600.589 75.9999H604.877V91.7119H602.317V78.5279H600.589V75.9999ZM601.005 71.9359C601.005 70.9439 601.805 70.1439 602.765 70.1439C603.757 70.1439 604.557 70.9439 604.557 71.9359C604.557 72.8959 603.757 73.6959 602.765 73.6959C601.805 73.6959 601.005 72.8959 601.005 71.9359ZM607.115 91.7119V67.9999H609.707V91.7119H607.115ZM611.935 91.7119V67.9999H614.527V91.7119H611.935ZM623.699 92.1919C618.835 92.1919 616.435 89.9519 616.435 87.1999H618.547C618.547 89.0879 620.275 90.3999 623.699 90.3999C626.611 90.3999 628.563 89.5999 628.563 87.2319C628.563 82.8799 616.435 87.0399 616.435 80.2879C616.435 76.9919 619.507 75.3919 623.955 75.3919C629.075 75.3919 630.803 77.6319 630.803 80.2879H628.883C628.883 78.0159 626.803 77.1839 623.955 77.1839C621.011 77.1839 618.675 77.8879 618.675 80.2879C618.675 84.6399 630.803 80.4479 630.803 87.1999C630.803 90.2079 628.659 92.2239 623.699 92.1919ZM634.011 90.2719C634.011 89.2479 634.875 88.3839 635.899 88.3839C636.955 88.3839 637.787 89.2479 637.787 90.2719C637.787 91.3279 636.955 92.1599 635.899 92.1599C634.875 92.1599 634.011 91.3279 634.011 90.2719Z" fill="white"/>
</svg>
